<svg xmlns="http://www.w3.org/2000/svg" xmlns:xlink="http://www.w3.org/1999/xlink" width="48" zoomAndPan="magnify" viewBox="0 0 36 36.000001" height="48" preserveAspectRatio="xMidYMid meet" version="1.0"><defs><clipPath id="e7167998a2"><path d="M 1.179688 0.691406 L 34.746094 0.691406 L 34.746094 34.261719 L 1.179688 34.261719 Z M 1.179688 0.691406 " clip-rule="nonzero"/></clipPath></defs><g clip-path="url(#e7167998a2)"><path fill="#ffffff" d="M 17.992188 0.691406 C 8.722656 0.691406 1.175781 8.234375 1.175781 17.507812 C 1.175781 26.78125 8.722656 34.324219 17.992188 34.324219 C 27.265625 34.324219 34.808594 26.78125 34.808594 17.507812 C 34.808594 8.234375 27.265625 0.691406 17.992188 0.691406 Z M 17.992188 28.4375 C 16.832031 28.4375 15.890625 27.496094 15.890625 26.335938 C 15.890625 25.175781 16.832031 24.234375 17.992188 24.234375 C 19.152344 24.234375 20.097656 25.175781 20.097656 26.335938 C 20.097656 27.496094 19.152344 28.4375 17.992188 28.4375 Z M 20.109375 20.65625 L 20.109375 22.550781 L 15.902344 22.550781 L 15.902344 16.785156 L 18.003906 16.785156 C 19.429688 16.785156 20.585938 15.628906 20.585938 14.203125 C 20.585938 12.777344 19.429688 11.621094 18.003906 11.621094 C 17.066406 11.621094 16.203125 12.144531 15.75 12.980469 L 14.75 14.832031 L 11.050781 12.835938 L 12.050781 10.984375 C 13.234375 8.785156 15.519531 7.417969 18.003906 7.417969 C 21.746094 7.417969 24.789062 10.460938 24.789062 14.203125 C 24.789062 17.214844 22.824219 19.769531 20.109375 20.65625 Z M 20.109375 20.65625 " fill-opacity="1" fill-rule="nonzero"/></g></svg>