<svg xmlns="http://www.w3.org/2000/svg" xmlns:xlink="http://www.w3.org/1999/xlink" width="48" zoomAndPan="magnify" viewBox="0 0 36 36.000001" height="48" preserveAspectRatio="xMidYMid meet" version="1.0"><defs><clipPath id="292112c84a"><path d="M 6.289062 1.125 L 29.640625 1.125 L 29.640625 33.960938 L 6.289062 33.960938 Z M 6.289062 1.125 " clip-rule="nonzero"/></clipPath></defs><g clip-path="url(#292112c84a)"><path fill="#000000" d="M 9.855469 33.289062 C 10.214844 33.050781 10.550781 32.785156 10.863281 32.492188 C 10.976562 32.351562 11.101562 32.230469 11.242188 32.121094 C 11.382812 32.011719 11.53125 31.917969 11.691406 31.84375 C 11.851562 31.765625 12.019531 31.707031 12.191406 31.667969 C 12.363281 31.628906 12.539062 31.609375 12.71875 31.609375 C 12.894531 31.609375 13.070312 31.628906 13.242188 31.667969 C 13.414062 31.707031 13.582031 31.765625 13.742188 31.84375 C 13.902344 31.917969 14.050781 32.011719 14.191406 32.121094 C 14.332031 32.230469 14.457031 32.351562 14.570312 32.492188 C 14.789062 32.722656 15.027344 32.933594 15.289062 33.117188 C 15.546875 33.300781 15.824219 33.457031 16.117188 33.582031 C 16.410156 33.710938 16.710938 33.808594 17.023438 33.871094 C 17.335938 33.9375 17.652344 33.96875 17.972656 33.96875 C 18.289062 33.96875 18.605469 33.9375 18.917969 33.871094 C 19.230469 33.808594 19.53125 33.710938 19.824219 33.582031 C 20.117188 33.457031 20.394531 33.300781 20.652344 33.117188 C 20.914062 32.933594 21.152344 32.722656 21.371094 32.492188 C 21.484375 32.355469 21.609375 32.230469 21.75 32.121094 C 21.890625 32.011719 22.039062 31.921875 22.199219 31.84375 C 22.359375 31.769531 22.527344 31.710938 22.699219 31.671875 C 22.871094 31.632812 23.046875 31.613281 23.222656 31.613281 C 23.398438 31.613281 23.574219 31.632812 23.746094 31.671875 C 23.917969 31.710938 24.085938 31.769531 24.246094 31.84375 C 24.40625 31.921875 24.554688 32.011719 24.695312 32.121094 C 24.832031 32.230469 24.960938 32.355469 25.070312 32.492188 C 25.382812 32.785156 25.71875 33.050781 26.074219 33.289062 C 26.429688 33.507812 26.816406 33.625 27.234375 33.636719 C 27.652344 33.644531 28.042969 33.550781 28.410156 33.351562 C 28.785156 33.148438 29.085938 32.859375 29.304688 32.492188 C 29.523438 32.121094 29.632812 31.71875 29.632812 31.289062 L 29.632812 4.644531 C 29.632812 4.175781 29.546875 3.726562 29.367188 3.296875 C 29.191406 2.867188 28.9375 2.484375 28.609375 2.15625 C 28.28125 1.824219 27.902344 1.570312 27.472656 1.390625 C 27.042969 1.214844 26.597656 1.125 26.132812 1.125 L 9.796875 1.125 C 9.332031 1.125 8.886719 1.214844 8.457031 1.390625 C 8.027344 1.570312 7.648438 1.824219 7.320312 2.15625 C 6.992188 2.484375 6.738281 2.867188 6.5625 3.296875 C 6.386719 3.726562 6.296875 4.175781 6.296875 4.644531 L 6.296875 31.292969 C 6.292969 31.726562 6.398438 32.132812 6.617188 32.503906 C 6.835938 32.878906 7.136719 33.167969 7.515625 33.375 C 7.886719 33.574219 8.277344 33.664062 8.695312 33.648438 C 9.113281 33.632812 9.5 33.511719 9.855469 33.289062 Z M 8.628906 4.644531 C 8.628906 4.488281 8.660156 4.339844 8.71875 4.195312 C 8.777344 4.050781 8.863281 3.921875 8.972656 3.8125 C 9.082031 3.703125 9.207031 3.617188 9.351562 3.558594 C 9.492188 3.5 9.640625 3.46875 9.796875 3.46875 L 26.132812 3.46875 C 26.289062 3.46875 26.4375 3.5 26.582031 3.558594 C 26.722656 3.617188 26.847656 3.703125 26.957031 3.8125 C 27.066406 3.921875 27.152344 4.050781 27.210938 4.195312 C 27.269531 4.339844 27.300781 4.488281 27.300781 4.644531 L 27.300781 31.289062 C 27.050781 31.113281 26.816406 30.917969 26.601562 30.703125 C 26.382812 30.46875 26.140625 30.261719 25.882812 30.074219 C 25.621094 29.890625 25.34375 29.734375 25.050781 29.609375 C 24.757812 29.480469 24.457031 29.386719 24.144531 29.320312 C 23.832031 29.257812 23.515625 29.222656 23.199219 29.222656 C 22.878906 29.222656 22.566406 29.257812 22.253906 29.320312 C 21.941406 29.386719 21.636719 29.480469 21.34375 29.609375 C 21.054688 29.734375 20.777344 29.890625 20.515625 30.074219 C 20.253906 30.261719 20.015625 30.46875 19.796875 30.703125 C 19.683594 30.839844 19.558594 30.960938 19.417969 31.070312 C 19.28125 31.179688 19.128906 31.273438 18.96875 31.347656 C 18.808594 31.425781 18.644531 31.480469 18.472656 31.519531 C 18.300781 31.558594 18.125 31.578125 17.949219 31.578125 C 17.769531 31.578125 17.597656 31.558594 17.421875 31.519531 C 17.25 31.480469 17.085938 31.425781 16.925781 31.347656 C 16.765625 31.273438 16.617188 31.179688 16.476562 31.070312 C 16.335938 30.960938 16.210938 30.839844 16.097656 30.703125 C 15.878906 30.46875 15.640625 30.261719 15.378906 30.074219 C 15.117188 29.890625 14.84375 29.734375 14.550781 29.609375 C 14.257812 29.480469 13.953125 29.386719 13.644531 29.320312 C 13.332031 29.257812 13.015625 29.222656 12.695312 29.222656 C 12.378906 29.222656 12.0625 29.257812 11.75 29.320312 C 11.4375 29.386719 11.136719 29.480469 10.84375 29.609375 C 10.550781 29.734375 10.273438 29.890625 10.011719 30.074219 C 9.753906 30.261719 9.511719 30.46875 9.296875 30.703125 C 9.082031 30.90625 8.855469 31.089844 8.613281 31.253906 Z M 8.628906 4.644531 " fill-opacity="1" fill-rule="nonzero"/></g></svg>