<svg xmlns="http://www.w3.org/2000/svg" xmlns:xlink="http://www.w3.org/1999/xlink" width="48" zoomAndPan="magnify" viewBox="0 0 36 36.000001" height="48" preserveAspectRatio="xMidYMid meet" version="1.0"><defs><clipPath id="a49dad06fe"><path d="M 0.769531 8.097656 L 35.066406 8.097656 L 35.066406 26.34375 L 0.769531 26.34375 Z M 0.769531 8.097656 " clip-rule="nonzero"/></clipPath><clipPath id="1961dc923a"><path d="M 12 8.097656 L 22 8.097656 L 22 13 L 12 13 Z M 12 8.097656 " clip-rule="nonzero"/></clipPath></defs><g clip-path="url(#a49dad06fe)"><path fill="#031b83" d="M 34.824219 10.574219 C 33.535156 8.835938 31.1875 8.121094 29.089844 8.980469 L 21.855469 11.9375 L 11.132812 16.324219 C 10.511719 16.578125 9.519531 16.546875 8.917969 16.253906 L 3.734375 13.738281 C 3.132812 13.445312 2.121094 13.359375 1.476562 13.542969 C 1.476562 13.542969 1.265625 13.605469 1.003906 13.679688 C 0.742188 13.753906 0.714844 14.011719 0.941406 14.257812 L 6.238281 19.898438 C 7.613281 21.363281 10.234375 21.9375 12.09375 21.175781 L 19.15625 18.285156 L 17.03125 26 C 16.945312 26.320312 17.121094 26.480469 17.433594 26.351562 L 18.015625 26.117188 C 19.253906 25.609375 20.824219 24.269531 21.523438 23.121094 L 26.230469 15.390625 L 34.292969 12.089844 C 34.914062 11.835938 35.222656 11.113281 34.824219 10.574219 Z M 34.824219 10.574219 " fill-opacity="1" fill-rule="nonzero"/></g><g clip-path="url(#1961dc923a)"><path fill="#031b83" d="M 16.277344 12.910156 L 21.222656 10.886719 L 17.414062 9.21875 C 16.058594 8.625 13.945312 8.53125 12.402344 8.957031 C 12.078125 9.046875 12.035156 9.324219 12.289062 9.542969 Z M 16.277344 12.910156 " fill-opacity="1" fill-rule="nonzero"/></g></svg>