<svg xmlns="http://www.w3.org/2000/svg" xmlns:xlink="http://www.w3.org/1999/xlink" width="48" zoomAndPan="magnify" viewBox="0 0 36 36.000001" height="48" preserveAspectRatio="xMidYMid meet" version="1.0"><defs><clipPath id="e71f671ef7"><path d="M 5 7 L 31 7 L 31 33.417969 L 5 33.417969 Z M 5 7 " clip-rule="nonzero"/></clipPath><clipPath id="447d722c87"><path d="M 0.863281 1.3125 L 35.160156 1.3125 L 35.160156 19 L 0.863281 19 Z M 0.863281 1.3125 " clip-rule="nonzero"/></clipPath></defs><g clip-path="url(#e71f671ef7)"><path fill="#000000" d="M 30.042969 17.632812 Z M 30.042969 17.632812 L 18.015625 7.085938 L 5.980469 17.636719 L 5.980469 32.714844 C 5.980469 33.105469 6.296875 33.417969 6.691406 33.417969 L 14.210938 33.417969 L 14.210938 26.804688 C 14.210938 26.417969 14.527344 26.101562 14.921875 26.101562 L 21.101562 26.101562 C 21.496094 26.101562 21.8125 26.417969 21.8125 26.804688 L 21.8125 33.417969 L 29.335938 33.417969 C 29.726562 33.417969 30.042969 33.105469 30.042969 32.714844 Z M 5.980469 17.636719 Z M 5.980469 17.636719 " fill-opacity="1" fill-rule="nonzero"/></g><g clip-path="url(#447d722c87)"><path fill="#000000" d="M 17.945312 1.3125 L 0.875 16.277344 L 2.675781 18.285156 L 18.015625 4.835938 L 33.355469 18.285156 L 35.148438 16.277344 L 18.082031 1.3125 L 18.015625 1.386719 Z M 17.945312 1.3125 " fill-opacity="1" fill-rule="nonzero"/></g><path fill="#000000" d="M 5.980469 3.464844 L 10.308594 3.464844 L 10.269531 6.003906 L 5.980469 9.839844 Z M 5.980469 3.464844 " fill-opacity="1" fill-rule="nonzero"/></svg>