<svg xmlns="http://www.w3.org/2000/svg" xmlns:xlink="http://www.w3.org/1999/xlink" width="48" zoomAndPan="magnify" viewBox="0 0 36 36.000001" height="48" preserveAspectRatio="xMidYMid meet" version="1.0"><defs><clipPath id="5272c59493"><path d="M 1 1.210938 L 35 1.210938 L 35 34 L 1 34 Z M 1 1.210938 " clip-rule="nonzero"/></clipPath></defs><g clip-path="url(#5272c59493)"><path fill="#ffffff" d="M 32.96875 18.253906 L 31.59375 18.253906 L 31.59375 32.378906 C 31.582031 32.570312 31.53125 32.753906 31.449219 32.925781 C 31.363281 33.097656 31.25 33.25 31.105469 33.378906 C 30.964844 33.507812 30.800781 33.601562 30.617188 33.667969 C 30.4375 33.730469 30.25 33.757812 30.058594 33.75 L 21.921875 33.75 L 21.921875 24.117188 C 21.921875 23.984375 21.894531 23.859375 21.84375 23.734375 C 21.792969 23.609375 21.722656 23.503906 21.625 23.40625 C 21.53125 23.3125 21.425781 23.242188 21.300781 23.191406 C 21.175781 23.136719 21.050781 23.113281 20.914062 23.113281 L 15.011719 23.113281 C 14.878906 23.113281 14.75 23.136719 14.628906 23.191406 C 14.503906 23.242188 14.394531 23.3125 14.300781 23.40625 C 14.207031 23.503906 14.132812 23.609375 14.082031 23.734375 C 14.03125 23.855469 14.007812 23.984375 14.007812 24.117188 L 14.007812 33.75 L 5.871094 33.75 C 5.679688 33.757812 5.492188 33.730469 5.3125 33.667969 C 5.128906 33.605469 4.96875 33.507812 4.824219 33.378906 C 4.679688 33.253906 4.566406 33.101562 4.484375 32.929688 C 4.398438 32.757812 4.351562 32.574219 4.339844 32.382812 L 4.339844 18.253906 L 2.957031 18.253906 C 1.425781 18.253906 0.59375 16.8125 1.597656 15.882812 L 16.738281 1.890625 C 16.929688 1.726562 17.140625 1.605469 17.375 1.519531 C 17.609375 1.433594 17.851562 1.390625 18.101562 1.390625 C 18.351562 1.390625 18.59375 1.433594 18.832031 1.519531 C 19.066406 1.609375 19.277344 1.734375 19.46875 1.894531 C 24.421875 6.558594 29.382812 11.226562 34.34375 15.890625 C 35.328125 16.824219 34.496094 18.253906 32.96875 18.253906 Z M 32.96875 18.253906 " fill-opacity="1" fill-rule="nonzero"/></g></svg>