<svg xmlns="http://www.w3.org/2000/svg" xmlns:xlink="http://www.w3.org/1999/xlink" width="48" zoomAndPan="magnify" viewBox="0 0 36 36.000001" height="48" preserveAspectRatio="xMidYMid meet" version="1.0"><defs><clipPath id="f0b3b498a8"><path d="M 1.890625 0.816406 L 33.996094 0.816406 L 33.996094 34.386719 L 1.890625 34.386719 Z M 1.890625 0.816406 " clip-rule="nonzero"/></clipPath></defs><g clip-path="url(#f0b3b498a8)"><path fill="#031b83" d="M 6.8125 22.71875 C 6.8125 22.589844 6.859375 22.484375 6.945312 22.394531 C 7.035156 22.304688 7.144531 22.261719 7.269531 22.261719 L 9.957031 22.261719 C 10.082031 22.261719 10.191406 22.304688 10.28125 22.394531 C 10.367188 22.484375 10.414062 22.589844 10.414062 22.71875 C 10.414062 22.84375 10.367188 22.949219 10.28125 23.039062 C 10.191406 23.128906 10.082031 23.171875 9.957031 23.171875 L 7.269531 23.171875 C 7.144531 23.171875 7.035156 23.128906 6.945312 23.039062 C 6.859375 22.949219 6.8125 22.84375 6.8125 22.71875 Z M 7.269531 24.972656 L 9.957031 24.972656 C 10.082031 24.972656 10.191406 24.925781 10.28125 24.835938 C 10.367188 24.75 10.414062 24.640625 10.414062 24.515625 C 10.414062 24.390625 10.367188 24.28125 10.28125 24.191406 C 10.191406 24.101562 10.082031 24.058594 9.957031 24.058594 L 7.269531 24.058594 C 7.144531 24.058594 7.035156 24.101562 6.945312 24.191406 C 6.859375 24.28125 6.8125 24.390625 6.8125 24.515625 C 6.8125 24.640625 6.859375 24.75 6.945312 24.835938 C 7.035156 24.925781 7.144531 24.972656 7.269531 24.972656 Z M 7.269531 26.765625 L 9.957031 26.765625 C 10.082031 26.765625 10.191406 26.722656 10.28125 26.632812 C 10.367188 26.542969 10.414062 26.4375 10.414062 26.308594 C 10.414062 26.183594 10.367188 26.078125 10.28125 25.988281 C 10.191406 25.898438 10.082031 25.855469 9.957031 25.855469 L 7.269531 25.855469 C 7.144531 25.855469 7.035156 25.898438 6.945312 25.988281 C 6.859375 26.078125 6.8125 26.183594 6.8125 26.308594 C 6.8125 26.4375 6.859375 26.542969 6.945312 26.632812 C 7.035156 26.722656 7.144531 26.765625 7.269531 26.765625 Z M 18.417969 15.871094 L 21.953125 15.871094 C 22.078125 15.871094 22.183594 15.824219 22.273438 15.734375 C 22.363281 15.648438 22.40625 15.539062 22.40625 15.414062 C 22.40625 15.289062 22.363281 15.179688 22.273438 15.089844 C 22.183594 15.003906 22.078125 14.957031 21.953125 14.957031 L 18.417969 14.957031 C 18.289062 14.957031 18.183594 15.003906 18.09375 15.089844 C 18.003906 15.179688 17.960938 15.289062 17.960938 15.414062 C 17.960938 15.539062 18.003906 15.648438 18.09375 15.734375 C 18.183594 15.824219 18.289062 15.871094 18.417969 15.871094 Z M 18.417969 17.664062 L 21.953125 17.664062 C 22.078125 17.664062 22.183594 17.621094 22.273438 17.53125 C 22.363281 17.441406 22.40625 17.335938 22.40625 17.210938 C 22.40625 17.082031 22.363281 16.976562 22.273438 16.886719 C 22.183594 16.796875 22.078125 16.753906 21.953125 16.753906 L 18.417969 16.753906 C 18.289062 16.753906 18.183594 16.796875 18.09375 16.886719 C 18.003906 16.976562 17.960938 17.082031 17.960938 17.210938 C 17.960938 17.335938 18.003906 17.441406 18.09375 17.53125 C 18.183594 17.621094 18.289062 17.664062 18.417969 17.664062 Z M 18.417969 19.460938 L 21.953125 19.460938 C 22.078125 19.460938 22.183594 19.417969 22.273438 19.328125 C 22.363281 19.238281 22.40625 19.128906 22.40625 19.003906 C 22.40625 18.878906 22.363281 18.769531 22.273438 18.683594 C 22.183594 18.59375 22.078125 18.546875 21.953125 18.546875 L 18.417969 18.546875 C 18.289062 18.546875 18.183594 18.59375 18.09375 18.683594 C 18.003906 18.769531 17.960938 18.878906 17.960938 19.003906 C 17.960938 19.128906 18.003906 19.238281 18.09375 19.328125 C 18.183594 19.417969 18.289062 19.460938 18.417969 19.460938 Z M 18.417969 21.257812 L 21.953125 21.257812 C 22.078125 21.257812 22.183594 21.214844 22.273438 21.125 C 22.363281 21.035156 22.40625 20.929688 22.40625 20.800781 C 22.40625 20.675781 22.363281 20.570312 22.273438 20.480469 C 22.183594 20.390625 22.078125 20.347656 21.953125 20.347656 L 18.417969 20.347656 C 18.289062 20.347656 18.183594 20.390625 18.09375 20.480469 C 18.003906 20.570312 17.960938 20.675781 17.960938 20.800781 C 17.960938 20.929688 18.003906 21.035156 18.09375 21.125 C 18.183594 21.214844 18.289062 21.257812 18.417969 21.257812 Z M 18.417969 23.054688 L 21.953125 23.054688 C 22.078125 23.054688 22.183594 23.007812 22.273438 22.921875 C 22.363281 22.832031 22.40625 22.722656 22.40625 22.597656 C 22.40625 22.472656 22.363281 22.363281 22.273438 22.273438 C 22.183594 22.1875 22.078125 22.140625 21.953125 22.140625 L 18.417969 22.140625 C 18.289062 22.140625 18.183594 22.1875 18.09375 22.273438 C 18.003906 22.363281 17.960938 22.472656 17.960938 22.597656 C 17.960938 22.722656 18.003906 22.832031 18.09375 22.921875 C 18.183594 23.007812 18.289062 23.054688 18.417969 23.054688 Z M 18.417969 24.847656 L 21.953125 24.847656 C 22.078125 24.847656 22.183594 24.804688 22.273438 24.714844 C 22.363281 24.625 22.40625 24.519531 22.40625 24.394531 C 22.40625 24.265625 22.363281 24.160156 22.273438 24.070312 C 22.183594 23.980469 22.078125 23.9375 21.953125 23.9375 L 18.417969 23.9375 C 18.289062 23.9375 18.183594 23.980469 18.09375 24.070312 C 18.003906 24.160156 17.960938 24.265625 17.960938 24.394531 C 17.960938 24.519531 18.003906 24.625 18.09375 24.714844 C 18.183594 24.804688 18.289062 24.847656 18.417969 24.847656 Z M 18.417969 26.648438 L 21.953125 26.648438 C 22.078125 26.648438 22.183594 26.601562 22.273438 26.511719 C 22.363281 26.425781 22.40625 26.316406 22.40625 26.191406 C 22.40625 26.066406 22.363281 25.957031 22.273438 25.867188 C 22.183594 25.777344 22.078125 25.734375 21.953125 25.734375 L 18.417969 25.734375 C 18.289062 25.734375 18.183594 25.777344 18.09375 25.867188 C 18.003906 25.957031 17.960938 26.066406 17.960938 26.191406 C 17.960938 26.316406 18.003906 26.425781 18.09375 26.511719 C 18.183594 26.601562 18.289062 26.648438 18.417969 26.648438 Z M 24.941406 10.414062 L 24.941406 9.558594 C 24.941406 9.433594 24.898438 9.324219 24.808594 9.234375 C 24.71875 9.144531 24.613281 9.101562 24.484375 9.101562 C 24.359375 9.101562 24.253906 9.144531 24.164062 9.234375 C 24.074219 9.324219 24.03125 9.433594 24.03125 9.558594 L 24.03125 10.414062 C 24.03125 10.539062 24.074219 10.644531 24.164062 10.734375 C 24.253906 10.824219 24.359375 10.867188 24.484375 10.867188 C 24.613281 10.867188 24.71875 10.824219 24.808594 10.734375 C 24.898438 10.644531 24.941406 10.539062 24.941406 10.414062 Z M 26.476562 10.867188 C 26.601562 10.867188 26.710938 10.824219 26.796875 10.734375 C 26.886719 10.644531 26.933594 10.539062 26.933594 10.414062 L 26.933594 9.558594 C 26.933594 9.433594 26.886719 9.324219 26.796875 9.234375 C 26.710938 9.144531 26.601562 9.101562 26.476562 9.101562 C 26.351562 9.101562 26.242188 9.144531 26.152344 9.234375 C 26.0625 9.324219 26.019531 9.433594 26.019531 9.558594 L 26.019531 10.414062 C 26.019531 10.539062 26.0625 10.648438 26.152344 10.734375 C 26.242188 10.824219 26.351562 10.871094 26.476562 10.871094 Z M 26.476562 13.933594 C 26.601562 13.933594 26.710938 13.890625 26.796875 13.800781 C 26.886719 13.710938 26.933594 13.605469 26.933594 13.476562 L 26.933594 12.621094 C 26.933594 12.496094 26.886719 12.390625 26.796875 12.300781 C 26.710938 12.210938 26.601562 12.167969 26.476562 12.167969 C 26.351562 12.167969 26.242188 12.210938 26.152344 12.300781 C 26.0625 12.390625 26.019531 12.496094 26.019531 12.621094 L 26.019531 13.476562 C 26.019531 13.605469 26.0625 13.710938 26.152344 13.800781 C 26.242188 13.890625 26.351562 13.933594 26.476562 13.933594 Z M 26.476562 16.996094 C 26.601562 16.996094 26.710938 16.953125 26.796875 16.863281 C 26.886719 16.773438 26.933594 16.667969 26.933594 16.539062 L 26.933594 15.683594 C 26.933594 15.558594 26.886719 15.453125 26.796875 15.363281 C 26.710938 15.273438 26.601562 15.230469 26.476562 15.230469 C 26.351562 15.230469 26.242188 15.273438 26.152344 15.363281 C 26.0625 15.453125 26.019531 15.558594 26.019531 15.683594 L 26.019531 16.539062 C 26.019531 16.667969 26.0625 16.773438 26.152344 16.863281 C 26.242188 16.953125 26.351562 16.996094 26.476562 16.996094 Z M 34.101562 31.324219 L 34.101562 33.753906 C 34.101562 33.878906 34.058594 33.988281 33.96875 34.074219 C 33.878906 34.164062 33.773438 34.210938 33.648438 34.210938 L 2.359375 34.210938 C 2.234375 34.210938 2.125 34.164062 2.035156 34.074219 C 1.949219 33.988281 1.902344 33.878906 1.902344 33.753906 L 1.902344 31.324219 C 1.902344 31.199219 1.949219 31.09375 2.039062 31.003906 C 2.125 30.914062 2.234375 30.871094 2.359375 30.871094 L 4.636719 30.871094 L 4.636719 19.929688 C 4.636719 19.800781 4.683594 19.695312 4.769531 19.605469 C 4.859375 19.515625 4.96875 19.472656 5.09375 19.472656 L 10.070312 19.472656 L 10.070312 6.195312 C 10.070312 6.003906 10.15625 5.863281 10.332031 5.78125 L 20.734375 0.886719 C 20.808594 0.855469 20.882812 0.839844 20.960938 0.84375 C 21.035156 0.851562 21.109375 0.875 21.175781 0.914062 C 21.242188 0.957031 21.292969 1.011719 21.332031 1.082031 C 21.367188 1.148438 21.386719 1.222656 21.386719 1.300781 L 21.386719 12.167969 L 22.308594 12.167969 L 22.308594 5.707031 C 22.308594 5.628906 22.328125 5.554688 22.367188 5.488281 C 22.402344 5.417969 22.457031 5.363281 22.523438 5.320312 C 22.585938 5.277344 22.660156 5.253906 22.738281 5.25 C 22.816406 5.246094 22.890625 5.261719 22.960938 5.292969 L 28.390625 7.847656 C 28.566406 7.929688 28.652344 8.066406 28.652344 8.261719 L 28.652344 17.710938 L 30.914062 17.710938 C 31.039062 17.710938 31.144531 17.757812 31.234375 17.84375 C 31.324219 17.933594 31.367188 18.042969 31.367188 18.167969 L 31.367188 19.453125 C 31.652344 19.652344 31.910156 19.886719 32.136719 20.148438 C 32.367188 20.410156 32.5625 20.699219 32.71875 21.007812 C 32.878906 21.316406 33 21.640625 33.082031 21.980469 C 33.167969 22.320312 33.207031 22.660156 33.207031 23.011719 C 33.207031 23.359375 33.167969 23.703125 33.082031 24.039062 C 33 24.378906 32.878906 24.703125 32.71875 25.011719 C 32.5625 25.324219 32.367188 25.609375 32.136719 25.871094 C 31.910156 26.136719 31.652344 26.367188 31.367188 26.570312 L 31.367188 28.265625 C 31.804688 28.480469 32.148438 28.796875 32.402344 29.207031 C 32.65625 29.621094 32.785156 30.070312 32.785156 30.554688 C 32.785156 30.660156 32.78125 30.765625 32.765625 30.871094 L 33.648438 30.871094 C 33.773438 30.871094 33.878906 30.914062 33.96875 31.003906 C 34.058594 31.09375 34.101562 31.199219 34.101562 31.324219 Z M 30.777344 29 C 30.777344 29 30.773438 29 30.773438 29 C 30.535156 28.917969 30.292969 28.886719 30.042969 28.914062 C 30.101562 29.144531 30.140625 29.375 30.152344 29.609375 C 30.160156 29.734375 30.121094 29.847656 30.039062 29.941406 C 29.953125 30.035156 29.847656 30.082031 29.722656 30.089844 C 29.714844 30.089844 29.707031 30.089844 29.695312 30.089844 C 29.574219 30.089844 29.472656 30.050781 29.382812 29.964844 C 29.296875 29.882812 29.25 29.78125 29.242188 29.660156 C 29.226562 29.355469 29.15625 29.0625 29.039062 28.78125 C 29.039062 28.78125 29.039062 28.777344 29.035156 28.777344 C 29.035156 28.777344 29.035156 28.777344 29.035156 28.773438 C 28.925781 28.515625 28.777344 28.28125 28.589844 28.070312 C 28.40625 27.859375 28.191406 27.683594 27.949219 27.539062 C 27.707031 27.398438 27.449219 27.296875 27.175781 27.238281 C 26.898438 27.179688 26.621094 27.164062 26.34375 27.195312 C 26.0625 27.226562 25.796875 27.296875 25.539062 27.414062 C 25.285156 27.53125 25.054688 27.683594 24.847656 27.875 C 24.640625 28.0625 24.46875 28.28125 24.332031 28.527344 C 24.195312 28.773438 24.097656 29.03125 24.046875 29.308594 C 24.019531 29.457031 23.9375 29.5625 23.804688 29.628906 C 23.671875 29.699219 23.539062 29.699219 23.402344 29.636719 C 23.183594 29.53125 22.949219 29.480469 22.707031 29.480469 C 22.511719 29.480469 22.320312 29.515625 22.136719 29.585938 C 21.953125 29.652344 21.785156 29.75 21.636719 29.875 C 21.488281 30.003906 21.363281 30.152344 21.269531 30.324219 C 21.171875 30.492188 21.109375 30.675781 21.078125 30.871094 L 31.84375 30.871094 C 31.863281 30.765625 31.875 30.660156 31.875 30.554688 C 31.871094 30.207031 31.773438 29.890625 31.570312 29.605469 C 31.371094 29.320312 31.105469 29.117188 30.777344 29 Z M 30.914062 20.25 C 30.621094 20.464844 30.371094 20.722656 30.160156 21.019531 C 30.148438 21.046875 30.128906 21.070312 30.113281 21.09375 C 29.796875 21.5625 29.609375 22.074219 29.550781 22.632812 L 29.550781 22.636719 C 29.550781 22.640625 29.550781 22.644531 29.550781 22.648438 C 29.550781 22.652344 29.550781 22.652344 29.550781 22.65625 C 29.539062 22.773438 29.53125 22.890625 29.53125 23.007812 C 29.53125 23.421875 29.601562 23.820312 29.746094 24.207031 C 29.753906 24.226562 29.761719 24.246094 29.765625 24.265625 C 29.996094 24.851562 30.355469 25.335938 30.851562 25.722656 C 30.890625 25.71875 30.933594 25.71875 30.972656 25.722656 C 31.183594 25.558594 31.371094 25.375 31.535156 25.167969 C 31.699219 24.960938 31.839844 24.738281 31.957031 24.5 C 32.070312 24.261719 32.15625 24.015625 32.210938 23.753906 C 32.269531 23.496094 32.296875 23.234375 32.292969 22.972656 C 32.292969 22.707031 32.257812 22.445312 32.195312 22.1875 C 32.132812 21.929688 32.039062 21.683594 31.921875 21.449219 C 31.800781 21.210938 31.65625 20.992188 31.484375 20.789062 C 31.316406 20.585938 31.125 20.40625 30.914062 20.246094 Z M 24.941406 18.625 L 24.941406 26.691406 C 25.347656 26.472656 25.78125 26.339844 26.238281 26.289062 C 26.699219 26.238281 27.148438 26.277344 27.59375 26.402344 C 28.039062 26.53125 28.441406 26.734375 28.804688 27.019531 C 29.167969 27.304688 29.464844 27.648438 29.691406 28.046875 C 29.867188 28.011719 30.046875 27.992188 30.222656 27.992188 C 30.300781 27.992188 30.378906 27.996094 30.457031 28.003906 L 30.457031 26.570312 C 29.824219 26.125 29.347656 25.550781 29.023438 24.847656 L 26.324219 24.847656 C 26.199219 24.847656 26.09375 24.804688 26.003906 24.714844 C 25.914062 24.625 25.871094 24.519531 25.871094 24.394531 C 25.871094 24.265625 25.914062 24.160156 26.003906 24.070312 C 26.09375 23.980469 26.199219 23.9375 26.324219 23.9375 L 28.714844 23.9375 C 28.652344 23.644531 28.621094 23.351562 28.617188 23.054688 L 26.324219 23.054688 C 26.199219 23.054688 26.09375 23.007812 26.003906 22.921875 C 25.914062 22.832031 25.871094 22.722656 25.871094 22.597656 C 25.871094 22.472656 25.914062 22.363281 26.003906 22.273438 C 26.09375 22.1875 26.199219 22.140625 26.324219 22.140625 L 28.703125 22.140625 C 28.765625 21.835938 28.855469 21.542969 28.980469 21.257812 L 26.324219 21.257812 C 26.199219 21.257812 26.09375 21.214844 26.003906 21.125 C 25.914062 21.035156 25.871094 20.929688 25.871094 20.800781 C 25.871094 20.675781 25.914062 20.570312 26.003906 20.480469 C 26.09375 20.390625 26.199219 20.347656 26.324219 20.347656 L 29.523438 20.347656 C 29.789062 20 30.101562 19.703125 30.457031 19.453125 L 30.457031 18.625 Z M 23.222656 12.164062 L 24.484375 12.164062 C 24.613281 12.164062 24.71875 12.210938 24.808594 12.300781 C 24.898438 12.386719 24.941406 12.496094 24.941406 12.621094 L 24.941406 17.710938 L 27.742188 17.710938 L 27.742188 8.550781 L 23.222656 6.425781 Z M 16.339844 13.078125 L 16.339844 30.871094 L 20.15625 30.871094 C 20.195312 30.503906 20.304688 30.160156 20.492188 29.84375 C 20.675781 29.527344 20.917969 29.261719 21.214844 29.046875 C 21.515625 28.832031 21.84375 28.691406 22.207031 28.617188 C 22.566406 28.546875 22.925781 28.550781 23.285156 28.636719 C 23.445312 28.171875 23.695312 27.757812 24.03125 27.398438 L 24.03125 13.078125 Z M 11.953125 27.964844 C 11.710938 27.964844 11.472656 28.007812 11.246094 28.089844 C 11.015625 28.171875 10.804688 28.289062 10.617188 28.445312 C 10.429688 28.601562 10.273438 28.785156 10.148438 28.992188 C 10.023438 29.203125 9.941406 29.429688 9.894531 29.667969 C 9.867188 29.8125 9.785156 29.921875 9.652344 29.988281 C 9.519531 30.054688 9.386719 30.058594 9.253906 29.996094 C 9.078125 29.914062 8.898438 29.875 8.707031 29.875 C 8.40625 29.875 8.140625 29.96875 7.90625 30.152344 C 7.671875 30.339844 7.519531 30.578125 7.449219 30.871094 L 15.425781 30.871094 L 15.425781 29.492188 C 15.105469 29.363281 14.789062 29.359375 14.46875 29.484375 C 14.355469 29.53125 14.238281 29.53125 14.125 29.480469 C 14.011719 29.433594 13.929688 29.355469 13.882812 29.238281 C 13.71875 28.855469 13.460938 28.542969 13.109375 28.3125 C 12.761719 28.082031 12.375 27.964844 11.953125 27.964844 Z M 10.984375 19.472656 L 12.132812 19.472656 C 12.257812 19.472656 12.363281 19.515625 12.453125 19.605469 C 12.542969 19.695312 12.585938 19.800781 12.585938 19.929688 L 12.585938 27.121094 C 13.441406 27.304688 14.09375 27.769531 14.539062 28.519531 C 14.671875 28.496094 14.804688 28.484375 14.941406 28.484375 C 15.105469 28.484375 15.265625 28.503906 15.425781 28.539062 L 15.425781 12.621094 C 15.425781 12.496094 15.46875 12.386719 15.558594 12.300781 C 15.648438 12.210938 15.757812 12.164062 15.882812 12.167969 L 20.472656 12.167969 L 20.472656 2.019531 L 10.984375 6.484375 Z M 5.550781 30.871094 L 6.523438 30.871094 C 6.558594 30.605469 6.640625 30.355469 6.765625 30.121094 C 6.894531 29.886719 7.054688 29.679688 7.257812 29.507812 C 7.457031 29.332031 7.683594 29.195312 7.933594 29.101562 C 8.183594 29.007812 8.441406 28.960938 8.707031 28.960938 C 8.851562 28.960938 8.996094 28.976562 9.136719 29.003906 C 9.339844 28.464844 9.667969 28.019531 10.128906 27.671875 C 10.585938 27.320312 11.101562 27.121094 11.675781 27.066406 L 11.675781 20.382812 L 5.550781 20.382812 Z M 33.191406 31.78125 L 2.816406 31.78125 L 2.816406 33.296875 L 33.191406 33.296875 Z M 33.191406 31.78125 " fill-opacity="1" fill-rule="nonzero"/></g></svg>