<svg xmlns="http://www.w3.org/2000/svg" xmlns:xlink="http://www.w3.org/1999/xlink" width="48" zoomAndPan="magnify" viewBox="0 0 36 36.000001" height="48" preserveAspectRatio="xMidYMid meet" version="1.0"><defs><clipPath id="84db906eca"><path d="M 1.632812 1.097656 L 35.511719 1.097656 L 35.511719 33.9375 L 1.632812 33.9375 Z M 1.632812 1.097656 " clip-rule="nonzero"/></clipPath></defs><g clip-path="url(#84db906eca)"><path fill="#031b83" d="M 35.082031 32.832031 L 33.558594 32.832031 L 33.558594 11.363281 C 33.558594 11.0625 33.316406 10.816406 33.011719 10.816406 L 19.179688 10.816406 L 19.179688 1.644531 C 19.179688 1.34375 18.9375 1.097656 18.632812 1.097656 L 4.253906 1.097656 C 3.953125 1.097656 3.707031 1.34375 3.707031 1.644531 L 3.707031 32.832031 L 2.183594 32.832031 C 1.882812 32.832031 1.640625 33.074219 1.640625 33.375 C 1.640625 33.679688 1.882812 33.921875 2.183594 33.921875 L 35.085938 33.921875 C 35.386719 33.921875 35.628906 33.679688 35.628906 33.375 C 35.628906 33.074219 35.386719 32.832031 35.082031 32.832031 Z M 4.800781 2.191406 L 18.089844 2.191406 L 18.089844 32.832031 L 4.800781 32.832031 Z M 19.179688 32.832031 L 19.179688 11.910156 L 32.46875 11.910156 L 32.46875 32.832031 Z M 10.105469 26.804688 L 7.496094 26.804688 C 7.195312 26.804688 6.949219 27.050781 6.949219 27.351562 L 6.949219 30.164062 C 6.949219 30.464844 7.195312 30.710938 7.496094 30.710938 L 10.105469 30.710938 C 10.410156 30.710938 10.652344 30.464844 10.652344 30.164062 L 10.652344 27.351562 C 10.652344 27.050781 10.410156 26.804688 10.105469 26.804688 Z M 9.5625 29.617188 L 8.042969 29.617188 L 8.042969 27.898438 L 9.5625 27.898438 Z M 10.105469 4.3125 L 7.496094 4.3125 C 7.195312 4.3125 6.949219 4.558594 6.949219 4.859375 L 6.949219 7.671875 C 6.949219 7.972656 7.195312 8.214844 7.496094 8.214844 L 10.105469 8.214844 C 10.410156 8.214844 10.652344 7.972656 10.652344 7.671875 L 10.652344 4.859375 C 10.652344 4.558594 10.410156 4.3125 10.105469 4.3125 Z M 9.5625 7.125 L 8.042969 7.125 L 8.042969 5.40625 L 9.5625 5.40625 Z M 15.394531 15.558594 L 12.78125 15.558594 C 12.480469 15.558594 12.238281 15.804688 12.238281 16.105469 L 12.238281 18.917969 C 12.238281 19.21875 12.480469 19.464844 12.78125 19.464844 L 15.394531 19.464844 C 15.695312 19.464844 15.941406 19.21875 15.941406 18.917969 L 15.941406 16.105469 C 15.941406 15.804688 15.695312 15.558594 15.394531 15.558594 Z M 14.847656 18.371094 L 13.328125 18.371094 L 13.328125 16.652344 L 14.847656 16.652344 Z M 10.105469 9.933594 L 7.496094 9.933594 C 7.195312 9.933594 6.949219 10.179688 6.949219 10.480469 L 6.949219 13.292969 C 6.949219 13.59375 7.195312 13.839844 7.496094 13.839844 L 10.105469 13.839844 C 10.410156 13.839844 10.652344 13.59375 10.652344 13.292969 L 10.652344 10.480469 C 10.652344 10.179688 10.410156 9.933594 10.105469 9.933594 Z M 9.5625 12.746094 L 8.042969 12.746094 L 8.042969 11.027344 L 9.5625 11.027344 Z M 10.105469 21.179688 L 7.496094 21.179688 C 7.195312 21.179688 6.949219 21.425781 6.949219 21.726562 L 6.949219 24.539062 C 6.949219 24.839844 7.195312 25.085938 7.496094 25.085938 L 10.105469 25.085938 C 10.410156 25.085938 10.652344 24.839844 10.652344 24.539062 L 10.652344 21.726562 C 10.652344 21.425781 10.410156 21.179688 10.105469 21.179688 Z M 9.5625 23.992188 L 8.042969 23.992188 L 8.042969 22.273438 L 9.5625 22.273438 Z M 10.105469 15.558594 L 7.496094 15.558594 C 7.195312 15.558594 6.949219 15.804688 6.949219 16.105469 L 6.949219 18.917969 C 6.949219 19.21875 7.195312 19.464844 7.496094 19.464844 L 10.105469 19.464844 C 10.410156 19.464844 10.652344 19.21875 10.652344 18.917969 L 10.652344 16.105469 C 10.652344 15.804688 10.410156 15.558594 10.105469 15.558594 Z M 9.5625 18.371094 L 8.042969 18.371094 L 8.042969 16.652344 L 9.5625 16.652344 Z M 15.394531 21.179688 L 12.78125 21.179688 C 12.480469 21.179688 12.238281 21.425781 12.238281 21.726562 L 12.238281 24.539062 C 12.238281 24.839844 12.480469 25.085938 12.78125 25.085938 L 15.394531 25.085938 C 15.695312 25.085938 15.941406 24.839844 15.941406 24.539062 L 15.941406 21.726562 C 15.941406 21.425781 15.695312 21.179688 15.394531 21.179688 Z M 14.847656 23.992188 L 13.328125 23.992188 L 13.328125 22.273438 L 14.847656 22.273438 Z M 15.394531 9.933594 L 12.78125 9.933594 C 12.480469 9.933594 12.238281 10.179688 12.238281 10.480469 L 12.238281 13.292969 C 12.238281 13.59375 12.480469 13.839844 12.78125 13.839844 L 15.394531 13.839844 C 15.695312 13.839844 15.941406 13.59375 15.941406 13.292969 L 15.941406 10.480469 C 15.941406 10.179688 15.695312 9.933594 15.394531 9.933594 Z M 14.847656 12.746094 L 13.328125 12.746094 L 13.328125 11.027344 L 14.847656 11.027344 Z M 15.394531 4.3125 L 12.78125 4.3125 C 12.480469 4.3125 12.238281 4.558594 12.238281 4.859375 L 12.238281 7.671875 C 12.238281 7.972656 12.480469 8.214844 12.78125 8.214844 L 15.394531 8.214844 C 15.695312 8.214844 15.941406 7.972656 15.941406 7.671875 L 15.941406 4.859375 C 15.941406 4.558594 15.695312 4.3125 15.394531 4.3125 Z M 14.847656 7.125 L 13.328125 7.125 L 13.328125 5.40625 L 14.847656 5.40625 Z M 15.394531 26.804688 L 12.78125 26.804688 C 12.480469 26.804688 12.238281 27.050781 12.238281 27.351562 L 12.238281 30.164062 C 12.238281 30.464844 12.480469 30.710938 12.78125 30.710938 L 15.394531 30.710938 C 15.695312 30.710938 15.941406 30.464844 15.941406 30.164062 L 15.941406 27.351562 C 15.941406 27.050781 15.695312 26.804688 15.394531 26.804688 Z M 14.847656 29.617188 L 13.328125 29.617188 L 13.328125 27.898438 L 14.847656 27.898438 Z M 29.773438 20.417969 L 27.160156 20.417969 C 26.859375 20.417969 26.617188 20.664062 26.617188 20.964844 L 26.617188 23.777344 C 26.617188 24.078125 26.859375 24.324219 27.160156 24.324219 L 29.773438 24.324219 C 30.074219 24.324219 30.320312 24.078125 30.320312 23.777344 L 30.320312 20.964844 C 30.320312 20.664062 30.074219 20.417969 29.773438 20.417969 Z M 29.226562 23.230469 L 27.707031 23.230469 L 27.707031 21.511719 L 29.226562 21.511719 Z M 29.773438 14.796875 L 27.160156 14.796875 C 26.859375 14.796875 26.617188 15.039062 26.617188 15.34375 L 26.617188 18.152344 C 26.617188 18.457031 26.859375 18.699219 27.160156 18.699219 L 29.773438 18.699219 C 30.074219 18.699219 30.320312 18.457031 30.320312 18.152344 L 30.320312 15.34375 C 30.320312 15.039062 30.074219 14.796875 29.773438 14.796875 Z M 29.226562 17.605469 L 27.707031 17.605469 L 27.707031 15.886719 L 29.226562 15.886719 Z M 29.773438 26.042969 L 27.160156 26.042969 C 26.859375 26.042969 26.617188 26.285156 26.617188 26.585938 L 26.617188 29.398438 C 26.617188 29.703125 26.859375 29.945312 27.160156 29.945312 L 29.773438 29.945312 C 30.074219 29.945312 30.320312 29.703125 30.320312 29.398438 L 30.320312 26.585938 C 30.320312 26.285156 30.074219 26.042969 29.773438 26.042969 Z M 29.226562 28.851562 L 27.707031 28.851562 L 27.707031 27.132812 L 29.226562 27.132812 Z M 24.488281 26.042969 L 21.875 26.042969 C 21.574219 26.042969 21.328125 26.285156 21.328125 26.585938 L 21.328125 29.398438 C 21.328125 29.703125 21.574219 29.945312 21.875 29.945312 L 24.488281 29.945312 C 24.789062 29.945312 25.03125 29.703125 25.03125 29.398438 L 25.03125 26.585938 C 25.03125 26.285156 24.789062 26.042969 24.488281 26.042969 Z M 23.941406 28.851562 L 22.421875 28.851562 L 22.421875 27.132812 L 23.941406 27.132812 Z M 24.488281 20.417969 L 21.875 20.417969 C 21.574219 20.417969 21.328125 20.664062 21.328125 20.964844 L 21.328125 23.777344 C 21.328125 24.078125 21.574219 24.324219 21.875 24.324219 L 24.488281 24.324219 C 24.789062 24.324219 25.03125 24.078125 25.03125 23.777344 L 25.03125 20.964844 C 25.03125 20.664062 24.789062 20.417969 24.488281 20.417969 Z M 23.941406 23.230469 L 22.421875 23.230469 L 22.421875 21.511719 L 23.941406 21.511719 Z M 24.488281 14.796875 L 21.875 14.796875 C 21.574219 14.796875 21.328125 15.039062 21.328125 15.34375 L 21.328125 18.152344 C 21.328125 18.457031 21.574219 18.699219 21.875 18.699219 L 24.488281 18.699219 C 24.789062 18.699219 25.03125 18.457031 25.03125 18.152344 L 25.03125 15.34375 C 25.03125 15.039062 24.789062 14.796875 24.488281 14.796875 Z M 23.941406 17.605469 L 22.421875 17.605469 L 22.421875 15.886719 L 23.941406 15.886719 Z M 23.941406 17.605469 " fill-opacity="1" fill-rule="nonzero"/></g></svg>