<svg xmlns="http://www.w3.org/2000/svg" xmlns:xlink="http://www.w3.org/1999/xlink" width="48" zoomAndPan="magnify" viewBox="0 0 36 36.000001" height="48" preserveAspectRatio="xMidYMid meet" version="1.0"><defs><clipPath id="7bd3605f66"><path d="M 1.363281 0.875 L 34.929688 0.875 L 34.929688 34.441406 L 1.363281 34.441406 Z M 1.363281 0.875 " clip-rule="nonzero"/></clipPath></defs><g clip-path="url(#7bd3605f66)"><path fill="#000000" d="M 20.429688 34.441406 L 15.863281 34.441406 C 15.644531 34.441406 15.4375 34.398438 15.238281 34.316406 C 15.039062 34.234375 14.859375 34.117188 14.707031 33.960938 C 14.554688 33.808594 14.4375 33.632812 14.355469 33.433594 C 14.269531 33.234375 14.230469 33.023438 14.230469 32.808594 L 14.230469 29.621094 C 13.621094 29.421875 13.03125 29.175781 12.457031 28.886719 L 10.203125 31.144531 C 10.050781 31.296875 9.875 31.414062 9.671875 31.5 C 9.472656 31.582031 9.265625 31.621094 9.050781 31.621094 C 8.832031 31.621094 8.625 31.582031 8.425781 31.5 C 8.222656 31.414062 8.046875 31.296875 7.894531 31.144531 L 4.660156 27.910156 C 4.507812 27.757812 4.390625 27.582031 4.308594 27.382812 C 4.222656 27.179688 4.183594 26.972656 4.183594 26.757812 C 4.183594 26.539062 4.222656 26.332031 4.308594 26.132812 C 4.390625 25.933594 4.507812 25.753906 4.660156 25.601562 L 6.917969 23.347656 C 6.628906 22.773438 6.386719 22.183594 6.1875 21.574219 L 2.996094 21.574219 C 2.78125 21.574219 2.570312 21.535156 2.371094 21.449219 C 2.171875 21.367188 1.996094 21.25 1.84375 21.097656 C 1.6875 20.945312 1.570312 20.765625 1.488281 20.566406 C 1.40625 20.367188 1.363281 20.160156 1.363281 19.941406 L 1.363281 15.375 C 1.363281 15.160156 1.40625 14.949219 1.488281 14.75 C 1.570312 14.550781 1.6875 14.375 1.84375 14.222656 C 1.996094 14.070312 2.171875 13.949219 2.371094 13.867188 C 2.570312 13.785156 2.78125 13.742188 2.996094 13.742188 L 6.183594 13.742188 C 6.382812 13.132812 6.625 12.542969 6.914062 11.972656 L 4.660156 9.71875 C 4.507812 9.5625 4.390625 9.386719 4.308594 9.1875 C 4.222656 8.988281 4.183594 8.777344 4.183594 8.5625 C 4.183594 8.347656 4.222656 8.136719 4.308594 7.9375 C 4.390625 7.738281 4.507812 7.5625 4.660156 7.40625 L 7.894531 4.175781 C 8.046875 4.019531 8.222656 3.902344 8.425781 3.820312 C 8.625 3.738281 8.832031 3.695312 9.050781 3.695312 C 9.265625 3.695312 9.472656 3.738281 9.671875 3.820312 C 9.875 3.902344 10.050781 4.019531 10.203125 4.175781 L 12.460938 6.433594 C 13.03125 6.144531 13.621094 5.902344 14.230469 5.703125 L 14.230469 2.507812 C 14.230469 2.292969 14.273438 2.085938 14.355469 1.886719 C 14.4375 1.683594 14.554688 1.507812 14.707031 1.355469 C 14.863281 1.203125 15.039062 1.085938 15.238281 1.003906 C 15.4375 0.917969 15.644531 0.878906 15.863281 0.878906 L 20.429688 0.878906 C 20.648438 0.878906 20.855469 0.917969 21.054688 1.003906 C 21.253906 1.085938 21.433594 1.203125 21.585938 1.355469 C 21.738281 1.507812 21.855469 1.683594 21.9375 1.886719 C 22.019531 2.085938 22.0625 2.292969 22.0625 2.507812 L 22.0625 5.699219 C 22.671875 5.894531 23.261719 6.140625 23.835938 6.429688 L 26.089844 4.175781 C 26.242188 4.019531 26.417969 3.902344 26.617188 3.820312 C 26.816406 3.738281 27.027344 3.695312 27.242188 3.695312 C 27.460938 3.695312 27.667969 3.738281 27.867188 3.820312 C 28.066406 3.902344 28.246094 4.019531 28.398438 4.175781 L 31.632812 7.40625 C 31.785156 7.5625 31.902344 7.738281 31.984375 7.9375 C 32.066406 8.136719 32.109375 8.347656 32.109375 8.5625 C 32.109375 8.777344 32.066406 8.988281 31.984375 9.1875 C 31.902344 9.386719 31.785156 9.5625 31.632812 9.71875 L 29.371094 11.972656 C 29.664062 12.542969 29.90625 13.132812 30.109375 13.742188 L 33.296875 13.742188 C 33.511719 13.742188 33.71875 13.785156 33.917969 13.867188 C 34.121094 13.949219 34.296875 14.070312 34.449219 14.222656 C 34.601562 14.375 34.71875 14.550781 34.804688 14.75 C 34.886719 14.953125 34.929688 15.160156 34.929688 15.375 L 34.929688 19.945312 C 34.929688 20.160156 34.886719 20.371094 34.804688 20.570312 C 34.71875 20.769531 34.601562 20.945312 34.449219 21.097656 C 34.296875 21.25 34.121094 21.371094 33.917969 21.453125 C 33.71875 21.535156 33.511719 21.578125 33.296875 21.578125 L 30.109375 21.578125 C 29.90625 22.1875 29.664062 22.777344 29.371094 23.347656 L 31.632812 25.601562 C 31.785156 25.753906 31.902344 25.933594 31.984375 26.132812 C 32.066406 26.332031 32.109375 26.539062 32.109375 26.757812 C 32.109375 26.972656 32.066406 27.179688 31.984375 27.382812 C 31.902344 27.582031 31.785156 27.757812 31.632812 27.910156 L 28.398438 31.144531 C 28.246094 31.296875 28.066406 31.414062 27.867188 31.5 C 27.667969 31.582031 27.460938 31.621094 27.242188 31.621094 C 27.027344 31.621094 26.816406 31.582031 26.617188 31.5 C 26.417969 31.414062 26.242188 31.296875 26.089844 31.144531 L 23.832031 28.886719 C 23.261719 29.175781 22.671875 29.421875 22.0625 29.621094 L 22.0625 32.808594 C 22.0625 33.027344 22.019531 33.234375 21.9375 33.433594 C 21.855469 33.632812 21.734375 33.808594 21.582031 33.960938 C 21.429688 34.117188 21.253906 34.234375 21.054688 34.316406 C 20.855469 34.398438 20.648438 34.441406 20.429688 34.441406 Z M 12.3125 27.070312 C 12.457031 27.070312 12.59375 27.105469 12.71875 27.179688 C 13.519531 27.636719 14.367188 27.992188 15.257812 28.234375 C 15.433594 28.285156 15.578125 28.378906 15.691406 28.527344 C 15.800781 28.671875 15.859375 28.835938 15.859375 29.019531 L 15.859375 32.8125 C 15.855469 32.816406 15.859375 32.820312 15.863281 32.820312 L 20.433594 32.820312 C 20.4375 32.820312 20.441406 32.816406 20.441406 32.8125 L 20.441406 29.015625 C 20.441406 28.832031 20.496094 28.667969 20.609375 28.523438 C 20.71875 28.378906 20.863281 28.28125 21.039062 28.234375 C 21.929688 27.988281 22.777344 27.636719 23.578125 27.175781 C 23.738281 27.085938 23.910156 27.054688 24.089844 27.078125 C 24.269531 27.101562 24.425781 27.179688 24.554688 27.308594 L 27.234375 29.988281 C 27.238281 29.992188 27.242188 29.992188 27.246094 29.988281 L 30.476562 26.757812 C 30.480469 26.753906 30.480469 26.75 30.476562 26.746094 L 27.796875 24.066406 C 27.667969 23.9375 27.589844 23.78125 27.566406 23.601562 C 27.542969 23.417969 27.574219 23.25 27.664062 23.089844 C 28.125 22.289062 28.476562 21.441406 28.722656 20.550781 C 28.769531 20.375 28.867188 20.230469 29.011719 20.117188 C 29.15625 20.007812 29.320312 19.953125 29.503906 19.953125 L 33.296875 19.953125 C 33.304688 19.953125 33.304688 19.949219 33.304688 19.945312 L 33.304688 15.375 C 33.304688 15.371094 33.304688 15.367188 33.296875 15.367188 L 29.503906 15.367188 C 29.320312 15.367188 29.15625 15.3125 29.011719 15.199219 C 28.863281 15.089844 28.765625 14.945312 28.71875 14.769531 C 28.476562 13.878906 28.121094 13.03125 27.664062 12.230469 C 27.574219 12.070312 27.539062 11.898438 27.5625 11.71875 C 27.589844 11.539062 27.664062 11.382812 27.792969 11.253906 L 30.476562 8.574219 C 30.476562 8.570312 30.476562 8.566406 30.476562 8.5625 L 27.25 5.328125 C 27.246094 5.324219 27.242188 5.324219 27.238281 5.328125 L 24.554688 8.007812 C 24.425781 8.136719 24.273438 8.214844 24.089844 8.238281 C 23.910156 8.261719 23.742188 8.230469 23.582031 8.136719 C 22.78125 7.679688 21.933594 7.328125 21.042969 7.082031 C 20.863281 7.035156 20.71875 6.9375 20.609375 6.792969 C 20.5 6.644531 20.441406 6.480469 20.441406 6.296875 L 20.441406 2.507812 C 20.441406 2.503906 20.441406 2.503906 20.433594 2.503906 L 15.863281 2.503906 C 15.855469 2.503906 15.855469 2.503906 15.855469 2.507812 L 15.855469 6.300781 C 15.855469 6.484375 15.796875 6.648438 15.6875 6.796875 C 15.578125 6.941406 15.433594 7.039062 15.253906 7.085938 C 14.363281 7.332031 13.515625 7.683594 12.714844 8.140625 C 12.554688 8.234375 12.386719 8.265625 12.203125 8.242188 C 12.023438 8.21875 11.867188 8.140625 11.738281 8.011719 L 9.058594 5.332031 C 9.054688 5.328125 9.050781 5.328125 9.046875 5.332031 L 5.8125 8.5625 C 5.808594 8.5625 5.808594 8.566406 5.8125 8.570312 L 8.492188 11.253906 C 8.621094 11.382812 8.699219 11.535156 8.722656 11.71875 C 8.746094 11.898438 8.714844 12.070312 8.625 12.226562 C 8.164062 13.027344 7.8125 13.875 7.570312 14.765625 C 7.519531 14.945312 7.421875 15.089844 7.277344 15.199219 C 7.132812 15.3125 6.96875 15.367188 6.785156 15.367188 L 2.996094 15.367188 C 2.992188 15.367188 2.988281 15.367188 2.988281 15.375 L 2.988281 19.941406 C 2.988281 19.945312 2.992188 19.949219 2.996094 19.949219 L 6.789062 19.949219 C 6.972656 19.949219 7.136719 20.003906 7.28125 20.117188 C 7.425781 20.226562 7.523438 20.371094 7.574219 20.546875 C 7.816406 21.441406 8.167969 22.285156 8.628906 23.089844 C 8.71875 23.246094 8.753906 23.417969 8.726562 23.597656 C 8.703125 23.777344 8.628906 23.933594 8.5 24.0625 L 5.816406 26.746094 C 5.8125 26.75 5.8125 26.75 5.816406 26.753906 L 9.046875 29.992188 C 9.050781 29.996094 9.054688 29.996094 9.058594 29.992188 L 11.738281 27.3125 C 11.898438 27.152344 12.085938 27.074219 12.3125 27.070312 Z M 18.15625 26.308594 C 17.007812 26.316406 15.898438 26.097656 14.835938 25.660156 C 13.773438 25.222656 12.835938 24.59375 12.023438 23.78125 C 9.59375 21.351562 8.847656 17.761719 10.082031 14.417969 C 10.492188 13.300781 11.121094 12.320312 11.960938 11.476562 C 12.804688 10.632812 13.785156 10.007812 14.90625 9.59375 C 18.25 8.363281 21.835938 9.109375 24.265625 11.539062 C 26.699219 13.96875 27.441406 17.554688 26.210938 20.898438 C 25.800781 22.019531 25.171875 23 24.328125 23.84375 C 23.484375 24.6875 22.503906 25.3125 21.386719 25.726562 C 20.34375 26.113281 19.269531 26.308594 18.15625 26.308594 Z M 18.167969 10.625 C 17.238281 10.628906 16.339844 10.792969 15.46875 11.117188 C 14.570312 11.449219 13.785156 11.949219 13.113281 12.625 C 12.4375 13.296875 11.933594 14.082031 11.605469 14.980469 C 10.582031 17.761719 11.164062 20.621094 13.171875 22.628906 C 13.828125 23.292969 14.582031 23.800781 15.441406 24.160156 C 16.296875 24.515625 17.191406 24.695312 18.125 24.691406 C 19.054688 24.6875 19.953125 24.523438 20.824219 24.195312 C 21.71875 23.867188 22.503906 23.367188 23.179688 22.691406 C 23.855469 22.019531 24.355469 21.234375 24.6875 20.339844 C 25.710938 17.558594 25.125 14.695312 23.117188 12.6875 C 22.464844 12.027344 21.710938 11.515625 20.851562 11.15625 C 19.992188 10.800781 19.097656 10.621094 18.167969 10.625 Z M 18.167969 10.625 " fill-opacity="1" fill-rule="nonzero"/></g></svg>