<svg xmlns="http://www.w3.org/2000/svg" xmlns:xlink="http://www.w3.org/1999/xlink" width="48" zoomAndPan="magnify" viewBox="0 0 36 36.000001" height="48" preserveAspectRatio="xMidYMid meet" version="1.0"><defs><clipPath id="6220a72f9e"><path d="M 1.835938 1.175781 L 33.945312 1.175781 L 33.945312 33.28125 L 1.835938 33.28125 Z M 1.835938 1.175781 " clip-rule="nonzero"/></clipPath></defs><g clip-path="url(#6220a72f9e)"><path fill="#ffffff" d="M 33.636719 33.496094 L 2.363281 33.496094 C 2.078125 33.496094 1.851562 33.269531 1.851562 32.984375 L 1.851562 30.0625 C 1.851562 25.203125 5.804688 21.246094 10.664062 21.246094 L 25.335938 21.246094 C 30.195312 21.246094 34.148438 25.203125 34.148438 30.0625 L 34.148438 32.984375 C 34.148438 33.269531 33.921875 33.496094 33.636719 33.496094 Z M 18 19.871094 C 12.847656 19.871094 8.652344 15.675781 8.652344 10.523438 C 8.652344 5.367188 12.847656 1.175781 18 1.175781 C 23.152344 1.175781 27.347656 5.367188 27.347656 10.523438 C 27.347656 15.675781 23.152344 19.871094 18 19.871094 Z M 18 19.871094 " fill-opacity="1" fill-rule="nonzero"/></g></svg>