<svg xmlns="http://www.w3.org/2000/svg" xmlns:xlink="http://www.w3.org/1999/xlink" width="48" zoomAndPan="magnify" viewBox="0 0 36 36.000001" height="48" preserveAspectRatio="xMidYMid meet" version="1.0"><defs><clipPath id="715e71e6ad"><path d="M 1 1.898438 L 29.460938 1.898438 L 29.460938 30.355469 L 1 30.355469 Z M 1 1.898438 " clip-rule="nonzero"/></clipPath><clipPath id="9edf31b8a3"><path d="M 16.980469 18.84375 L 35.511719 18.84375 L 35.511719 35.027344 L 16.980469 35.027344 Z M 16.980469 18.84375 " clip-rule="nonzero"/></clipPath><clipPath id="a9b0990886"><path d="M 0.980469 0.84375 L 19.511719 0.84375 L 19.511719 17.027344 L 0.980469 17.027344 Z M 0.980469 0.84375 " clip-rule="nonzero"/></clipPath><clipPath id="a400b3717d"><rect x="0" width="20" y="0" height="18"/></clipPath><clipPath id="44a435a067"><path d="M 18.105469 15.636719 L 34.886719 15.636719 L 34.886719 32.421875 L 18.105469 32.421875 Z M 18.105469 15.636719 " clip-rule="nonzero"/></clipPath></defs><g clip-path="url(#715e71e6ad)"><path fill="#031b83" d="M 28.910156 30.261719 C 28.664062 30.261719 28.460938 30.058594 28.460938 29.8125 L 28.460938 27.25 C 28.460938 23.480469 25.394531 20.414062 21.625 20.414062 L 8.75 20.414062 C 4.980469 20.414062 1.914062 23.480469 1.914062 27.25 L 1.914062 29.8125 C 1.914062 30.0625 1.710938 30.261719 1.460938 30.261719 C 1.214844 30.261719 1.011719 30.0625 1.011719 29.8125 L 1.011719 27.25 C 1.011719 22.984375 4.484375 19.511719 8.75 19.511719 L 21.625 19.511719 C 25.890625 19.511719 29.359375 22.984375 29.359375 27.25 L 29.359375 29.8125 C 29.359375 30.058594 29.15625 30.261719 28.910156 30.261719 Z M 23.390625 10.101562 C 23.390625 5.578125 19.710938 1.898438 15.1875 1.898438 C 10.664062 1.898438 6.984375 5.578125 6.984375 10.101562 C 6.984375 14.625 10.664062 18.304688 15.1875 18.304688 C 19.710938 18.304688 23.390625 14.625 23.390625 10.101562 Z M 22.488281 10.101562 C 22.488281 14.128906 19.214844 17.402344 15.1875 17.402344 C 11.160156 17.402344 7.882812 14.128906 7.882812 10.101562 C 7.882812 6.074219 11.160156 2.796875 15.1875 2.796875 C 19.214844 2.796875 22.488281 6.074219 22.488281 10.101562 Z M 22.488281 10.101562 " fill-opacity="1" fill-rule="nonzero"/></g><g clip-path="url(#9edf31b8a3)"><g transform="matrix(1, 0, 0, 1, 16, 18)"><g clip-path="url(#a400b3717d)"><g clip-path="url(#a9b0990886)"><path fill="#ffffff" d="M 0.980469 0.84375 L 25.796875 0.84375 L 25.796875 18.347656 L 0.980469 18.347656 Z M 0.980469 0.84375 " fill-opacity="1" fill-rule="nonzero"/></g></g></g></g><g clip-path="url(#44a435a067)"><path fill="#031b83" d="M 34.136719 16.269531 C 33.746094 15.882812 33.273438 15.691406 32.726562 15.691406 C 32.175781 15.691406 31.707031 15.882812 31.320312 16.269531 L 30.652344 16.914062 L 19.335938 28.195312 C 19.324219 28.207031 19.3125 28.222656 19.304688 28.238281 C 19.292969 28.261719 19.289062 28.285156 19.285156 28.3125 L 18.132812 31.949219 C 18.097656 32.0625 18.121094 32.15625 18.203125 32.238281 C 18.257812 32.292969 18.324219 32.320312 18.402344 32.320312 C 18.425781 32.324219 18.453125 32.324219 18.480469 32.320312 L 22.140625 31.1875 C 22.160156 31.179688 22.175781 31.171875 22.191406 31.160156 C 22.207031 31.152344 22.21875 31.144531 22.234375 31.132812 L 30.238281 23.171875 C 30.210938 23.339844 30.246094 23.496094 30.339844 23.636719 C 30.484375 23.832031 30.675781 23.929688 30.914062 23.925781 C 31.03125 23.925781 31.140625 23.894531 31.238281 23.835938 C 31.308594 23.792969 31.398438 23.695312 31.566406 23.292969 C 31.625 23.214844 31.640625 23.132812 31.617188 23.042969 C 31.59375 22.949219 31.539062 22.886719 31.449219 22.847656 C 31.363281 22.8125 31.277344 22.816406 31.195312 22.867188 C 31.113281 22.914062 31.066406 22.984375 31.054688 23.078125 C 31.015625 23.175781 30.96875 23.273438 30.914062 23.367188 C 30.875 23.367188 30.835938 23.351562 30.804688 23.324219 C 30.804688 23.324219 30.785156 23.296875 30.804688 23.179688 C 30.882812 22.84375 31.746094 22.4375 32.433594 22.109375 C 33.1875 21.753906 33.894531 21.417969 34.230469 20.988281 C 34.464844 20.722656 34.554688 20.417969 34.503906 20.066406 C 34.445312 19.78125 34.3125 19.539062 34.097656 19.339844 L 34.230469 19.203125 C 34.417969 19.015625 34.566406 18.800781 34.667969 18.554688 C 34.773438 18.3125 34.824219 18.054688 34.828125 17.789062 C 34.828125 17.523438 34.777344 17.269531 34.675781 17.023438 C 34.578125 16.777344 34.433594 16.558594 34.246094 16.371094 Z M 18.828125 31.617188 L 19.660156 28.914062 L 21.535156 30.796875 Z M 22.058594 30.539062 L 19.925781 28.390625 L 30.859375 17.507812 L 32.992188 19.65625 Z M 33.792969 20.640625 C 33.535156 20.964844 32.859375 21.285156 32.199219 21.597656 C 31.941406 21.71875 31.691406 21.835938 31.457031 21.960938 L 33.40625 20.015625 L 33.691406 19.730469 C 33.824219 19.839844 33.914062 19.980469 33.957031 20.148438 C 33.976562 20.335938 33.921875 20.5 33.792969 20.640625 Z M 33.839844 18.800781 L 33.382812 19.261719 L 31.242188 17.117188 L 31.703125 16.65625 C 31.984375 16.375 32.320312 16.230469 32.71875 16.226562 C 33.121094 16.230469 33.460938 16.375 33.742188 16.660156 L 33.84375 16.761719 C 33.980469 16.898438 34.085938 17.054688 34.15625 17.230469 C 34.230469 17.40625 34.265625 17.589844 34.265625 17.78125 C 34.265625 17.972656 34.230469 18.15625 34.15625 18.332031 C 34.085938 18.507812 33.980469 18.664062 33.84375 18.800781 Z M 33.839844 18.800781 " fill-opacity="1" fill-rule="nonzero"/></g></svg>