<svg xmlns="http://www.w3.org/2000/svg" xmlns:xlink="http://www.w3.org/1999/xlink" width="48" zoomAndPan="magnify" viewBox="0 0 36 36.000001" height="48" preserveAspectRatio="xMidYMid meet" version="1.0"><defs><clipPath id="c92ecb3b20"><path d="M 1.542969 1.058594 L 34.382812 1.058594 L 34.382812 33.894531 L 1.542969 33.894531 Z M 1.542969 1.058594 " clip-rule="nonzero"/></clipPath></defs><g clip-path="url(#c92ecb3b20)"><path fill="#031b83" d="M 33.917969 33.960938 C 33.632812 33.960938 33.394531 33.726562 33.394531 33.441406 L 33.394531 30.464844 C 33.394531 26.09375 29.839844 22.535156 25.464844 22.535156 L 10.53125 22.535156 C 6.160156 22.535156 2.601562 26.09375 2.601562 30.464844 L 2.601562 33.441406 C 2.601562 33.726562 2.367188 33.960938 2.082031 33.960938 C 1.792969 33.960938 1.558594 33.726562 1.558594 33.441406 L 1.558594 30.464844 C 1.558594 25.519531 5.585938 21.492188 10.53125 21.492188 L 25.464844 21.492188 C 30.414062 21.492188 34.441406 25.519531 34.441406 30.464844 L 34.441406 33.441406 C 34.441406 33.726562 34.203125 33.960938 33.917969 33.960938 Z M 27.515625 10.574219 C 27.515625 5.328125 23.246094 1.058594 18 1.058594 C 12.753906 1.058594 8.484375 5.328125 8.484375 10.574219 C 8.484375 15.820312 12.753906 20.089844 18 20.089844 C 23.246094 20.089844 27.515625 15.820312 27.515625 10.574219 Z M 26.472656 10.574219 C 26.472656 15.246094 22.671875 19.046875 18 19.046875 C 13.328125 19.046875 9.527344 15.246094 9.527344 10.574219 C 9.527344 5.902344 13.328125 2.101562 18 2.101562 C 22.671875 2.101562 26.472656 5.902344 26.472656 10.574219 Z M 26.472656 10.574219 " fill-opacity="1" fill-rule="nonzero"/></g></svg>