<svg xmlns="http://www.w3.org/2000/svg" xmlns:xlink="http://www.w3.org/1999/xlink" width="48" zoomAndPan="magnify" viewBox="0 0 36 36.000001" height="48" preserveAspectRatio="xMidYMid meet" version="1.0"><defs><clipPath id="620ad1b35d"><path d="M 1.363281 0.875 L 34.929688 0.875 L 34.929688 34.441406 L 1.363281 34.441406 Z M 1.363281 0.875 " clip-rule="nonzero"/></clipPath><clipPath id="08884290bf"><path d="M 5 20 L 31 20 L 31 34.441406 L 5 34.441406 Z M 5 20 " clip-rule="nonzero"/></clipPath></defs><g clip-path="url(#620ad1b35d)"><path fill="#b3b3b3" d="M 34.929688 17.660156 C 34.929688 21.953125 33.320312 25.871094 30.667969 28.839844 C 27.59375 32.28125 23.125 34.445312 18.148438 34.445312 C 13.171875 34.445312 8.699219 32.28125 5.628906 28.839844 C 2.972656 25.871094 1.363281 21.953125 1.363281 17.660156 C 1.363281 8.390625 8.875 0.875 18.148438 0.875 C 27.417969 0.875 34.929688 8.390625 34.929688 17.660156 " fill-opacity="1" fill-rule="nonzero"/></g><path fill="#f2f2f2" d="M 18.148438 20.75 C 21.1875 20.75 23.960938 17.308594 23.960938 13.53125 C 23.960938 9.960938 23.269531 6.429688 18.148438 6.429688 C 13.023438 6.429688 12.332031 9.960938 12.332031 13.53125 C 12.332031 17.308594 15.105469 20.75 18.148438 20.75 " fill-opacity="1" fill-rule="nonzero"/><g clip-path="url(#08884290bf)"><path fill="#f2f2f2" d="M 30.667969 28.839844 C 27.59375 32.28125 23.125 34.445312 18.148438 34.445312 C 13.171875 34.445312 8.699219 32.28125 5.628906 28.839844 C 5.574219 26.765625 6.953125 21.960938 13.996094 20.484375 C 15.199219 21.714844 16.683594 22.410156 18.148438 22.410156 C 19.609375 22.410156 21.09375 21.714844 22.296875 20.484375 C 29.339844 21.960938 30.71875 26.765625 30.667969 28.839844 " fill-opacity="1" fill-rule="nonzero"/></g></svg>