<svg xmlns="http://www.w3.org/2000/svg" xmlns:xlink="http://www.w3.org/1999/xlink" width="48" zoomAndPan="magnify" viewBox="0 0 36 36.000001" height="48" preserveAspectRatio="xMidYMid meet" version="1.0"><defs><clipPath id="bffda9ea6d"><path d="M 9 0.804688 L 28 0.804688 L 28 26 L 9 26 Z M 9 0.804688 " clip-rule="nonzero"/></clipPath><clipPath id="b7e429ae53"><path d="M 5.167969 6 L 32.167969 6 L 32.167969 34.375 L 5.167969 34.375 Z M 5.167969 6 " clip-rule="nonzero"/></clipPath></defs><g clip-path="url(#bffda9ea6d)"><path fill="#031b83" d="M 18.582031 25.554688 C 18.40625 25.539062 18.191406 25.398438 17.945312 25.128906 C 17.222656 24.339844 16.574219 23.570312 16.007812 22.824219 C 14.601562 20.976562 13.28125 19.03125 12.042969 16.984375 C 11.484375 16.0625 10.992188 15.148438 10.570312 14.25 C 10.054688 13.148438 9.722656 12.171875 9.578125 11.3125 C 9.292969 9.652344 9.492188 8.011719 10.175781 6.390625 C 11.011719 4.402344 12.382812 2.898438 14.296875 1.875 C 16.503906 0.691406 19.21875 0.511719 21.546875 1.289062 C 24.652344 2.320312 27.132812 5.164062 27.679688 8.414062 C 27.957031 10.0625 27.761719 11.695312 27.082031 13.304688 C 26.460938 14.792969 25.730469 16.195312 24.894531 17.519531 C 23.460938 19.792969 21.902344 22.03125 20.207031 24.074219 C 19.8125 24.546875 19.445312 24.960938 19.101562 25.3125 C 19 25.417969 18.863281 25.492188 18.695312 25.542969 C 18.660156 25.554688 18.621094 25.558594 18.582031 25.554688 Z M 18.566406 24.308594 C 18.605469 24.351562 18.640625 24.351562 18.683594 24.316406 C 18.683594 24.3125 18.6875 24.3125 18.6875 24.308594 C 19.027344 23.953125 19.363281 23.5625 19.703125 23.140625 C 20.660156 21.945312 21.703125 20.511719 22.824219 18.84375 C 24.179688 16.832031 25.296875 15.023438 26.152344 12.914062 C 27.152344 10.433594 26.976562 8.074219 25.613281 5.839844 C 23.859375 2.953125 20.808594 1.5 17.441406 1.921875 C 13.640625 2.398438 10.738281 5.644531 10.503906 9.445312 C 10.414062 10.953125 10.726562 12.148438 11.347656 13.496094 C 12.710938 16.464844 14.550781 19.105469 16.523438 21.8125 C 17.167969 22.691406 17.847656 23.523438 18.566406 24.308594 Z M 18.566406 24.308594 " fill-opacity="1" fill-rule="nonzero"/></g><g clip-path="url(#b7e429ae53)"><path fill="#031b83" d="M 14.96875 9.90625 C 15.023438 7.894531 16.71875 6.308594 18.753906 6.367188 C 20.785156 6.421875 22.386719 8.097656 22.332031 10.109375 C 22.277344 12.121094 20.582031 13.707031 18.546875 13.648438 C 16.515625 13.59375 14.914062 11.914062 14.96875 9.90625 Z M 21.332031 10.003906 C 21.332031 8.523438 20.132812 7.320312 18.648438 7.320312 C 17.167969 7.320312 15.964844 8.523438 15.964844 10.003906 C 15.964844 11.488281 17.167969 12.6875 18.648438 12.6875 C 20.132812 12.6875 21.332031 11.488281 21.332031 10.003906 Z M 23.652344 22.738281 L 23.652344 22.722656 C 23.695312 22.472656 23.925781 22.300781 24.175781 22.332031 C 24.789062 22.414062 25.703125 22.652344 26.921875 23.050781 C 28.339844 23.515625 29.757812 24.207031 30.820312 25.234375 C 32.246094 26.609375 32.578125 28.574219 31.308594 30.1875 C 30.449219 31.285156 29.148438 32.058594 27.832031 32.582031 C 26.675781 33.042969 25.503906 33.390625 24.320312 33.628906 C 21.914062 34.109375 19.4375 34.289062 16.890625 34.164062 C 14.476562 34.046875 12.15625 33.578125 9.9375 32.761719 C 8.222656 32.128906 5.949219 30.976562 5.34375 29.078125 C 4.996094 27.996094 5.15625 26.980469 5.828125 26.035156 C 6.316406 25.34375 6.941406 24.761719 7.707031 24.289062 C 9.257812 23.328125 11.035156 22.703125 13.039062 22.417969 C 13.292969 22.382812 13.535156 22.546875 13.59375 22.800781 L 13.597656 22.820312 C 13.652344 23.050781 13.507812 23.28125 13.273438 23.335938 C 13.265625 23.335938 13.257812 23.339844 13.246094 23.339844 C 11.804688 23.574219 10.441406 23.996094 9.152344 24.613281 C 7.890625 25.21875 6.539062 26.1875 6.1875 27.582031 C 5.886719 28.773438 6.789062 29.902344 7.75 30.554688 C 8.597656 31.125 9.585938 31.609375 10.726562 32.003906 C 15.03125 33.5 19.804688 33.53125 24.328125 32.648438 C 26.285156 32.265625 28.285156 31.53125 29.78125 30.394531 C 30.8125 29.609375 31.550781 28.332031 30.945312 27.050781 C 30.453125 26.003906 29.5625 25.308594 28.523438 24.789062 C 27.128906 24.089844 25.636719 23.589844 24.035156 23.285156 C 23.78125 23.238281 23.609375 22.996094 23.652344 22.738281 Z M 23.652344 22.738281 " fill-opacity="1" fill-rule="nonzero"/></g><path fill="#031b83" d="M 18.648438 31.125 C 16.703125 31.128906 14.765625 30.871094 12.976562 30.097656 C 12.273438 29.792969 11.480469 29.226562 11.203125 28.515625 C 10.769531 27.40625 11.578125 26.527344 12.511719 26.03125 C 13.199219 25.664062 14.015625 25.410156 14.960938 25.265625 C 15.222656 25.226562 15.464844 25.402344 15.511719 25.660156 L 15.511719 25.664062 C 15.554688 25.910156 15.390625 26.144531 15.144531 26.191406 C 14.160156 26.375 13.222656 26.628906 12.480469 27.214844 C 11.945312 27.644531 11.914062 28.09375 12.394531 28.566406 C 12.636719 28.808594 12.914062 29 13.222656 29.140625 C 14.886719 29.914062 16.753906 30.148438 18.644531 30.148438 C 20.535156 30.144531 22.402344 29.90625 24.066406 29.128906 C 24.375 28.988281 24.648438 28.792969 24.894531 28.550781 C 25.371094 28.078125 25.339844 27.628906 24.804688 27.203125 C 24.058594 26.617188 23.121094 26.363281 22.136719 26.183594 C 21.890625 26.140625 21.726562 25.902344 21.769531 25.65625 L 21.769531 25.652344 C 21.816406 25.394531 22.058594 25.214844 22.320312 25.253906 C 23.265625 25.398438 24.078125 25.652344 24.769531 26.015625 C 25.703125 26.511719 26.515625 27.390625 26.085938 28.5 C 25.808594 29.210938 25.019531 29.78125 24.3125 30.085938 C 22.527344 30.863281 20.589844 31.125 18.648438 31.125 Z M 18.648438 31.125 " fill-opacity="1" fill-rule="nonzero"/></svg>