<svg xmlns="http://www.w3.org/2000/svg" xmlns:xlink="http://www.w3.org/1999/xlink" width="48" zoomAndPan="magnify" viewBox="0 0 36 36.000001" height="48" preserveAspectRatio="xMidYMid meet" version="1.0"><defs><clipPath id="db0447339f"><path d="M 9 26 L 28 26 L 28 34.824219 L 9 34.824219 Z M 9 26 " clip-rule="nonzero"/></clipPath><clipPath id="0caacfb633"><path d="M 7.679688 0.527344 L 29.574219 0.527344 L 29.574219 30 L 7.679688 30 Z M 7.679688 0.527344 " clip-rule="nonzero"/></clipPath></defs><g clip-path="url(#db0447339f)"><path fill="#031b83" d="M 13.25 28.320312 C 13.367188 28.257812 13.492188 28.199219 13.617188 28.144531 C 14.070312 27.949219 14.273438 27.421875 14.078125 26.96875 C 13.878906 26.515625 13.351562 26.3125 12.898438 26.507812 C 12.742188 26.578125 12.589844 26.648438 12.4375 26.726562 C 10.761719 27.585938 9.835938 28.734375 9.835938 29.957031 C 9.835938 31.1875 10.761719 32.335938 12.441406 33.191406 C 14.085938 34.03125 16.28125 34.492188 18.613281 34.492188 C 20.945312 34.492188 23.140625 34.03125 24.785156 33.191406 C 26.464844 32.335938 27.390625 31.1875 27.390625 29.957031 C 27.390625 28.734375 26.464844 27.585938 24.785156 26.726562 C 24.613281 26.636719 24.433594 26.554688 24.25 26.472656 C 23.796875 26.28125 23.269531 26.488281 23.074219 26.941406 C 22.882812 27.394531 23.089844 27.921875 23.542969 28.117188 C 23.691406 28.179688 23.835938 28.246094 23.972656 28.316406 C 25.175781 28.933594 25.601562 29.585938 25.601562 29.957031 C 25.601562 30.332031 25.175781 30.988281 23.972656 31.597656 C 22.574219 32.3125 20.671875 32.707031 18.613281 32.707031 C 16.558594 32.707031 14.652344 32.3125 13.253906 31.597656 C 12.050781 30.988281 11.625 30.332031 11.625 29.957031 C 11.625 29.585938 12.050781 28.933594 13.25 28.320312 Z M 13.25 28.320312 " fill-opacity="1" fill-rule="nonzero"/></g><g clip-path="url(#0caacfb633)"><path fill="#031b83" d="M 18.730469 0.53125 C 18.707031 0.527344 18.683594 0.527344 18.660156 0.527344 L 18.566406 0.527344 C 18.542969 0.527344 18.519531 0.527344 18.496094 0.53125 C 12.605469 0.617188 7.828125 5.460938 7.828125 11.34375 C 7.734375 17.199219 12.210938 22.554688 15.484375 26.464844 C 16.441406 27.613281 17.269531 28.601562 17.832031 29.425781 C 17.996094 29.667969 18.273438 29.8125 18.570312 29.8125 L 18.660156 29.8125 C 18.953125 29.8125 19.230469 29.667969 19.398438 29.425781 C 19.957031 28.601562 20.785156 27.613281 21.746094 26.464844 C 25.015625 22.554688 29.492188 17.199219 29.402344 11.359375 C 29.398438 5.460938 24.621094 0.617188 18.730469 0.53125 Z M 20.371094 25.320312 C 19.714844 26.105469 19.117188 26.820312 18.613281 27.472656 C 18.109375 26.820312 17.511719 26.105469 16.855469 25.320312 C 13.761719 21.621094 9.53125 16.5625 9.613281 11.359375 C 9.613281 6.417969 13.632812 2.359375 18.578125 2.316406 C 18.589844 2.316406 18.601562 2.316406 18.613281 2.316406 C 18.625 2.316406 18.636719 2.316406 18.652344 2.316406 C 23.59375 2.359375 27.613281 6.417969 27.613281 11.375 C 27.695312 16.5625 23.464844 21.621094 20.371094 25.320312 Z M 20.371094 25.320312 " fill-opacity="1" fill-rule="nonzero"/></g><path fill="#031b83" d="M 18.613281 7.410156 C 16.429688 7.433594 14.664062 9.191406 14.664062 11.359375 C 14.664062 13.527344 16.425781 15.289062 18.613281 15.3125 C 20.800781 15.289062 22.5625 13.527344 22.5625 11.359375 C 22.5625 9.191406 20.796875 7.433594 18.613281 7.410156 Z M 18.613281 7.410156 " fill-opacity="1" fill-rule="nonzero"/></svg>