<svg xmlns="http://www.w3.org/2000/svg" xmlns:xlink="http://www.w3.org/1999/xlink" width="48" zoomAndPan="magnify" viewBox="0 0 36 36.000001" height="48" preserveAspectRatio="xMidYMid meet" version="1.0"><defs><clipPath id="45fcd91375"><path d="M 0.976562 4.765625 L 35 4.765625 L 35 30.304688 L 0.976562 30.304688 Z M 0.976562 4.765625 " clip-rule="nonzero"/></clipPath></defs><g clip-path="url(#45fcd91375)"><path fill="#ffffff" d="M 32.34375 30.253906 L 3.613281 30.253906 C 3.398438 30.222656 3.238281 30.199219 3.136719 30.179688 C 2.21875 29.984375 1.453125 29.265625 1.148438 28.402344 C 1.054688 28.144531 1.023438 27.878906 0.976562 27.605469 L 0.976562 7.375 C 1.023438 7.246094 1.023438 7.097656 1.046875 6.988281 C 1.085938 6.835938 1.121094 6.667969 1.183594 6.527344 C 1.570312 5.621094 2.246094 5.058594 3.214844 4.84375 C 3.300781 4.824219 3.390625 4.8125 3.480469 4.808594 C 3.601562 4.804688 3.71875 4.777344 3.839844 4.777344 C 13.199219 4.773438 22.65625 4.773438 32.214844 4.777344 C 32.289062 4.777344 32.363281 4.78125 32.433594 4.792969 C 32.503906 4.804688 32.578125 4.8125 32.648438 4.824219 C 32.898438 4.855469 33.121094 4.914062 33.3125 5 C 34.226562 5.410156 34.902344 6.269531 34.96875 7.292969 C 34.980469 7.457031 34.996094 7.621094 34.996094 7.785156 C 34.957031 12.863281 34.980469 17.949219 34.980469 23.386719 C 34.980469 24.550781 35.011719 25.777344 34.992188 27.003906 C 34.988281 27.382812 34.980469 27.636719 34.96875 27.769531 C 34.890625 28.574219 34.511719 29.230469 33.828125 29.738281 C 33.503906 29.976562 33.140625 30.128906 32.738281 30.195312 C 32.605469 30.21875 32.472656 30.234375 32.34375 30.253906 Z M 17.480469 20.089844 C 17.914062 20.253906 18.421875 20.148438 18.757812 19.835938 C 21.722656 17.074219 24.667969 14.34375 27.601562 11.636719 C 29.292969 10.078125 30.972656 8.523438 32.636719 6.976562 C 32.660156 6.953125 32.660156 6.929688 32.636719 6.902344 C 32.597656 6.863281 32.542969 6.84375 32.46875 6.84375 C 22.761719 6.839844 13.171875 6.835938 3.699219 6.835938 C 3.511719 6.835938 3.40625 6.878906 3.28125 7 C 3.261719 7.019531 3.261719 7.035156 3.28125 7.050781 C 3.382812 7.140625 3.484375 7.230469 3.585938 7.324219 C 4.714844 8.355469 5.984375 9.527344 7.386719 10.839844 C 10.402344 13.652344 13.328125 16.371094 16.167969 18.996094 C 16.417969 19.230469 16.675781 19.46875 16.941406 19.714844 C 17.15625 19.910156 17.335938 20.035156 17.480469 20.089844 Z M 32.878906 9.675781 C 32.878906 9.667969 32.875 9.660156 32.871094 9.65625 C 32.863281 9.648438 32.855469 9.648438 32.847656 9.65625 C 32.613281 9.835938 32.425781 10.046875 32.203125 10.253906 C 29.796875 12.492188 27.328125 14.796875 24.792969 17.167969 C 24.769531 17.191406 24.742188 17.210938 24.71875 17.230469 C 24.679688 17.253906 24.675781 17.285156 24.710938 17.3125 C 24.796875 17.386719 24.871094 17.453125 24.9375 17.511719 C 26.304688 18.796875 27.78125 20.183594 29.359375 21.679688 C 29.664062 21.96875 29.929688 22.226562 30.160156 22.453125 C 30.414062 22.699219 30.679688 22.933594 30.929688 23.179688 C 31.125 23.371094 31.316406 23.550781 31.503906 23.722656 C 31.816406 24.003906 32.101562 24.300781 32.417969 24.585938 C 32.566406 24.71875 32.707031 24.859375 32.847656 25.003906 C 32.855469 25.011719 32.859375 25.011719 32.867188 25.011719 C 32.882812 25.007812 32.886719 25.003906 32.886719 24.992188 C 32.886719 19.894531 32.886719 14.800781 32.886719 9.707031 C 32.886719 9.699219 32.886719 9.691406 32.882812 9.6875 C 32.878906 9.683594 32.878906 9.679688 32.878906 9.675781 Z M 3.128906 25.011719 C 3.339844 24.800781 3.566406 24.578125 3.8125 24.34375 C 6.015625 22.25 8.191406 20.171875 10.339844 18.113281 C 10.585938 17.878906 10.839844 17.636719 11.109375 17.386719 C 11.164062 17.335938 11.164062 17.289062 11.109375 17.238281 C 11.007812 17.144531 10.90625 17.054688 10.8125 16.96875 C 8.21875 14.539062 5.773438 12.261719 3.484375 10.136719 C 3.347656 10.011719 3.214844 9.886719 3.089844 9.769531 C 3.082031 9.765625 3.082031 9.765625 3.082031 9.769531 L 3.070312 24.988281 C 3.070312 25.042969 3.089844 25.050781 3.128906 25.011719 Z M 18.09375 22.292969 C 17.0625 22.339844 16.230469 21.96875 15.472656 21.257812 C 14.789062 20.609375 13.941406 19.816406 12.929688 18.875 C 12.886719 18.835938 12.84375 18.796875 12.792969 18.757812 C 12.761719 18.734375 12.730469 18.734375 12.699219 18.765625 C 12.570312 18.878906 12.453125 19.007812 12.328125 19.125 C 9.699219 21.636719 7.089844 24.132812 4.511719 26.609375 C 4.183594 26.925781 3.894531 27.199219 3.640625 27.429688 C 3.496094 27.5625 3.359375 27.691406 3.230469 27.820312 C 3.199219 27.855469 3.195312 27.890625 3.230469 27.925781 C 3.433594 28.144531 3.613281 28.128906 3.945312 28.128906 C 13.378906 28.128906 22.8125 28.128906 32.246094 28.128906 C 32.476562 28.128906 32.605469 28.105469 32.730469 27.917969 C 32.761719 27.871094 32.753906 27.832031 32.71875 27.796875 C 29.675781 24.921875 26.636719 22.042969 23.601562 19.160156 C 23.429688 19 23.289062 18.855469 23.171875 18.726562 C 23.132812 18.683594 23.09375 18.683594 23.050781 18.722656 C 22.195312 19.511719 21.347656 20.316406 20.496094 21.113281 C 20.171875 21.421875 19.917969 21.632812 19.742188 21.746094 C 19.214844 22.085938 18.664062 22.269531 18.09375 22.292969 Z M 18.09375 22.292969 " fill-opacity="1" fill-rule="nonzero"/></g></svg>