<svg xmlns="http://www.w3.org/2000/svg" xmlns:xlink="http://www.w3.org/1999/xlink" width="48" zoomAndPan="magnify" viewBox="0 0 36 36.000001" height="48" preserveAspectRatio="xMidYMid meet" version="1.0"><defs><clipPath id="c0149ed466"><path d="M 5.949219 1.199219 L 30.027344 1.199219 L 30.027344 34 L 5.949219 34 Z M 5.949219 1.199219 " clip-rule="nonzero"/></clipPath></defs><g clip-path="url(#c0149ed466)"><path fill="#031b83" d="M 18 1.207031 C 11.347656 1.207031 5.949219 6.652344 5.949219 13.351562 C 5.949219 17.289062 8.34375 22.25 10.957031 26.339844 C 12.265625 28.382812 13.636719 30.195312 14.832031 31.515625 C 15.429688 32.175781 15.980469 32.71875 16.480469 33.109375 C 16.980469 33.503906 17.382812 33.8125 18 33.8125 C 18.742188 33.8125 19.207031 33.390625 19.835938 32.84375 C 20.46875 32.296875 21.179688 31.542969 21.9375 30.625 C 23.457031 28.792969 25.167969 26.320312 26.628906 23.667969 C 28.542969 20.203125 30.050781 16.464844 30.050781 13.351562 C 30.050781 6.652344 24.648438 1.207031 18 1.207031 Z M 18 2.621094 C 23.878906 2.621094 28.632812 7.414062 28.632812 13.351562 C 28.632812 15.988281 27.238281 19.628906 25.386719 22.984375 C 23.972656 25.550781 22.300781 27.96875 20.847656 29.71875 C 20.121094 30.59375 19.445312 31.304688 18.90625 31.773438 C 18.46875 32.15625 18.070312 32.328125 17.996094 32.378906 C 17.925781 32.339844 17.660156 32.234375 17.359375 31.996094 C 16.957031 31.679688 16.445312 31.1875 15.882812 30.566406 C 14.757812 29.324219 13.421875 27.558594 12.152344 25.574219 C 9.613281 21.605469 7.367188 16.6875 7.367188 13.351562 C 7.367188 7.414062 12.121094 2.621094 18 2.621094 Z M 17.960938 6.167969 C 17.816406 6.175781 17.6875 6.222656 17.574219 6.308594 L 12.46875 10.136719 C 11.933594 10.539062 11.621094 11.167969 11.621094 11.839844 L 11.621094 18.21875 C 11.621094 18.414062 11.6875 18.582031 11.828125 18.71875 C 11.964844 18.859375 12.132812 18.925781 12.328125 18.925781 L 15.871094 18.925781 C 16.070312 18.925781 16.234375 18.859375 16.375 18.71875 C 16.511719 18.582031 16.582031 18.414062 16.582031 18.21875 L 16.582031 13.964844 L 19.417969 13.964844 L 19.417969 18.21875 C 19.417969 18.414062 19.484375 18.582031 19.625 18.71875 C 19.761719 18.859375 19.929688 18.925781 20.125 18.925781 L 23.671875 18.925781 C 23.867188 18.925781 24.03125 18.859375 24.171875 18.71875 C 24.308594 18.582031 24.378906 18.414062 24.378906 18.21875 L 24.378906 11.839844 C 24.378906 11.167969 24.0625 10.539062 23.527344 10.136719 L 18.425781 6.308594 C 18.308594 6.21875 18.175781 6.171875 18.03125 6.167969 C 18.007812 6.164062 17.984375 6.164062 17.960938 6.167969 Z M 18 7.761719 L 22.675781 11.269531 C 22.855469 11.40625 22.960938 11.613281 22.960938 11.839844 L 22.960938 17.507812 L 20.835938 17.507812 L 20.835938 13.257812 C 20.835938 13.058594 20.765625 12.894531 20.628906 12.753906 C 20.488281 12.617188 20.320312 12.546875 20.125 12.546875 L 15.871094 12.546875 C 15.675781 12.546875 15.511719 12.617188 15.371094 12.753906 C 15.234375 12.894531 15.164062 13.058594 15.164062 13.257812 L 15.164062 17.507812 L 13.039062 17.507812 L 13.039062 11.839844 C 13.039062 11.613281 13.140625 11.40625 13.320312 11.269531 Z M 18 7.761719 " fill-opacity="1" fill-rule="nonzero"/></g></svg>