<svg xmlns="http://www.w3.org/2000/svg" xmlns:xlink="http://www.w3.org/1999/xlink" width="48" zoomAndPan="magnify" viewBox="0 0 36 36.000001" height="48" preserveAspectRatio="xMidYMid meet" version="1.0"><defs><clipPath id="6a91d8ae3e"><path d="M 4.085938 1.089844 L 30.355469 1.089844 L 30.355469 33.925781 L 4.085938 33.925781 Z M 4.085938 1.089844 " clip-rule="nonzero"/></clipPath></defs><g clip-path="url(#6a91d8ae3e)"><path fill="#031b83" d="M 4.519531 33.925781 L 30.25 33.925781 C 30.375 33.925781 30.496094 33.875 30.578125 33.777344 C 30.660156 33.683594 30.695312 33.558594 30.679688 33.433594 L 26.085938 1.460938 C 26.054688 1.25 25.875 1.09375 25.660156 1.09375 L 9.113281 1.09375 C 8.898438 1.09375 8.714844 1.25 8.683594 1.460938 L 4.09375 33.433594 C 4.074219 33.558594 4.109375 33.683594 4.195312 33.777344 C 4.277344 33.875 4.394531 33.925781 4.519531 33.925781 Z M 22.335938 1.953125 L 26.808594 33.058594 L 7.96875 33.058594 L 12.4375 1.953125 Z M 29.753906 33.0625 L 27.679688 33.0625 L 23.210938 1.957031 L 25.285156 1.957031 Z M 9.488281 1.953125 L 11.5625 1.953125 L 7.09375 33.058594 L 5.015625 33.058594 L 9.484375 1.953125 Z M 9.488281 1.953125 " fill-opacity="1" fill-rule="nonzero"/></g><path fill="#031b83" d="M 17.386719 23.535156 C 17.625 23.535156 17.820312 23.34375 17.820312 23.101562 L 17.820312 19.121094 C 17.820312 18.882812 17.625 18.6875 17.386719 18.6875 C 17.148438 18.6875 16.957031 18.882812 16.957031 19.121094 L 16.957031 23.101562 C 16.957031 23.34375 17.148438 23.535156 17.386719 23.535156 Z M 17.386719 23.535156 " fill-opacity="1" fill-rule="nonzero"/><path fill="#031b83" d="M 17.386719 31.503906 C 17.625 31.503906 17.820312 31.308594 17.820312 31.070312 L 17.820312 27.085938 C 17.820312 26.847656 17.625 26.652344 17.386719 26.652344 C 17.148438 26.652344 16.957031 26.847656 16.957031 27.085938 L 16.957031 31.070312 C 16.957031 31.308594 17.148438 31.503906 17.386719 31.503906 Z M 17.386719 31.503906 " fill-opacity="1" fill-rule="nonzero"/><path fill="#031b83" d="M 17.386719 15.570312 C 17.625 15.570312 17.820312 15.375 17.820312 15.136719 L 17.820312 11.152344 C 17.820312 10.914062 17.625 10.722656 17.386719 10.722656 C 17.148438 10.722656 16.957031 10.914062 16.957031 11.152344 L 16.957031 15.136719 C 16.957031 15.375 17.148438 15.570312 17.386719 15.570312 Z M 17.386719 15.570312 " fill-opacity="1" fill-rule="nonzero"/><path fill="#031b83" d="M 17.386719 7.601562 C 17.625 7.601562 17.820312 7.410156 17.820312 7.171875 L 17.820312 3.1875 C 17.820312 2.949219 17.625 2.753906 17.386719 2.753906 C 17.148438 2.753906 16.957031 2.949219 16.957031 3.1875 L 16.957031 7.171875 C 16.957031 7.410156 17.148438 7.601562 17.386719 7.601562 Z M 17.386719 7.601562 " fill-opacity="1" fill-rule="nonzero"/></svg>