<svg xmlns="http://www.w3.org/2000/svg" xmlns:xlink="http://www.w3.org/1999/xlink" width="48" zoomAndPan="magnify" viewBox="0 0 36 36.000001" height="48" preserveAspectRatio="xMidYMid meet" version="1.0"><defs><clipPath id="797005de72"><path d="M 3.460938 0.890625 L 32.648438 0.890625 L 32.648438 34.457031 L 3.460938 34.457031 Z M 3.460938 0.890625 " clip-rule="nonzero"/></clipPath></defs><g clip-path="url(#797005de72)"><path fill="#000000" d="M 15.222656 4.148438 C 14.464844 4.945312 13.886719 6.234375 13.886719 8.148438 L 13.886719 10.332031 L 22.226562 10.332031 L 22.226562 8.148438 C 22.226562 4.683594 20.039062 3.046875 18.027344 2.996094 C 17 2.96875 15.988281 3.347656 15.222656 4.148438 Z M 24.308594 10.332031 L 24.308594 8.148438 C 24.308594 3.613281 21.285156 0.984375 18.082031 0.902344 C 16.503906 0.859375 14.910156 1.449219 13.71875 2.699219 C 12.523438 3.953125 11.800781 5.796875 11.800781 8.148438 L 11.800781 10.332031 L 3.460938 10.332031 L 3.460938 29.203125 C 3.460938 32.097656 5.792969 34.445312 8.671875 34.445312 L 27.4375 34.445312 C 30.316406 34.445312 32.648438 32.097656 32.648438 29.203125 L 32.648438 10.332031 Z M 22.226562 12.429688 L 22.226562 13.480469 L 24.308594 13.480469 L 24.308594 12.429688 L 30.566406 12.429688 L 30.566406 29.203125 C 30.566406 30.941406 29.164062 32.351562 27.4375 32.351562 L 8.671875 32.351562 C 6.945312 32.351562 5.546875 30.941406 5.546875 29.203125 L 5.546875 12.429688 L 11.800781 12.429688 L 11.800781 13.480469 L 13.886719 13.480469 L 13.886719 12.429688 Z M 22.226562 12.429688 " fill-opacity="1" fill-rule="evenodd"/></g></svg>