<svg xmlns="http://www.w3.org/2000/svg" xmlns:xlink="http://www.w3.org/1999/xlink" width="48" zoomAndPan="magnify" viewBox="0 0 36 36.000001" height="48" preserveAspectRatio="xMidYMid meet" version="1.0"><defs><clipPath id="5600393805"><path d="M 4.085938 0.789062 L 33.277344 0.789062 L 33.277344 34.359375 L 4.085938 34.359375 Z M 4.085938 0.789062 " clip-rule="nonzero"/></clipPath></defs><g clip-path="url(#5600393805)"><path fill="#ff0000" d="M 25.644531 32.65625 C 25.644531 32.863281 25.605469 33.0625 25.523438 33.253906 C 25.445312 33.449219 25.332031 33.617188 25.183594 33.765625 C 25.039062 33.910156 24.867188 34.023438 24.675781 34.101562 C 24.484375 34.183594 24.285156 34.222656 24.078125 34.222656 L 9.308594 34.222656 C 8.964844 34.222656 8.625 34.1875 8.289062 34.121094 C 7.953125 34.054688 7.628906 33.953125 7.3125 33.824219 C 6.992188 33.691406 6.691406 33.53125 6.40625 33.339844 C 6.125 33.148438 5.859375 32.933594 5.617188 32.691406 C 5.375 32.449219 5.160156 32.183594 4.96875 31.898438 C 4.777344 31.617188 4.617188 31.316406 4.484375 30.996094 C 4.355469 30.679688 4.253906 30.355469 4.1875 30.019531 C 4.121094 29.683594 4.085938 29.34375 4.085938 29 L 4.085938 6.023438 C 4.085938 5.679688 4.121094 5.339844 4.1875 5.003906 C 4.253906 4.667969 4.355469 4.339844 4.484375 4.023438 C 4.617188 3.707031 4.777344 3.40625 4.96875 3.121094 C 5.160156 2.835938 5.375 2.574219 5.617188 2.332031 C 5.859375 2.089844 6.125 1.871094 6.40625 1.683594 C 6.691406 1.492188 6.992188 1.332031 7.3125 1.199219 C 7.628906 1.066406 7.953125 0.96875 8.289062 0.902344 C 8.625 0.835938 8.964844 0.800781 9.308594 0.800781 L 24.078125 0.800781 C 24.285156 0.800781 24.484375 0.839844 24.675781 0.917969 C 24.867188 1 25.039062 1.113281 25.183594 1.257812 C 25.332031 1.40625 25.445312 1.574219 25.523438 1.765625 C 25.605469 1.960938 25.644531 2.160156 25.644531 2.367188 C 25.644531 2.574219 25.605469 2.773438 25.523438 2.964844 C 25.445312 3.160156 25.332031 3.328125 25.183594 3.476562 C 25.039062 3.621094 24.867188 3.734375 24.675781 3.8125 C 24.484375 3.894531 24.285156 3.933594 24.078125 3.933594 L 9.308594 3.933594 C 9.03125 3.933594 8.765625 3.988281 8.507812 4.09375 C 8.253906 4.199219 8.027344 4.351562 7.832031 4.546875 C 7.636719 4.742188 7.484375 4.96875 7.378906 5.222656 C 7.273438 5.480469 7.21875 5.746094 7.21875 6.023438 L 7.21875 29 C 7.21875 29.277344 7.273438 29.542969 7.378906 29.800781 C 7.484375 30.054688 7.636719 30.28125 7.832031 30.476562 C 8.027344 30.671875 8.253906 30.824219 8.507812 30.929688 C 8.765625 31.035156 9.03125 31.089844 9.308594 31.089844 L 24.078125 31.089844 C 24.285156 31.089844 24.484375 31.128906 24.675781 31.207031 C 24.867188 31.289062 25.039062 31.402344 25.183594 31.546875 C 25.332031 31.695312 25.445312 31.863281 25.523438 32.054688 C 25.605469 32.25 25.644531 32.449219 25.644531 32.65625 Z M 32.730469 16.402344 L 25.285156 8.957031 C 25.140625 8.808594 24.96875 8.695312 24.777344 8.613281 C 24.585938 8.53125 24.382812 8.488281 24.175781 8.488281 C 23.964844 8.484375 23.761719 8.527344 23.570312 8.605469 C 23.375 8.683594 23.207031 8.796875 23.058594 8.945312 C 22.910156 9.09375 22.796875 9.265625 22.714844 9.457031 C 22.636719 9.652344 22.597656 9.855469 22.597656 10.0625 C 22.601562 10.273438 22.640625 10.472656 22.722656 10.664062 C 22.804688 10.859375 22.921875 11.027344 23.070312 11.175781 L 27.839844 15.945312 L 15.507812 15.945312 C 15.300781 15.945312 15.097656 15.984375 14.90625 16.0625 C 14.714844 16.144531 14.546875 16.257812 14.398438 16.402344 C 14.253906 16.550781 14.140625 16.71875 14.058594 16.910156 C 13.980469 17.105469 13.941406 17.304688 13.941406 17.511719 C 13.941406 17.71875 13.980469 17.917969 14.058594 18.109375 C 14.140625 18.304688 14.253906 18.472656 14.398438 18.621094 C 14.546875 18.765625 14.714844 18.878906 14.90625 18.957031 C 15.097656 19.039062 15.300781 19.078125 15.507812 19.078125 L 27.839844 19.078125 L 23.070312 23.847656 C 22.921875 23.996094 22.808594 24.164062 22.726562 24.355469 C 22.648438 24.550781 22.609375 24.75 22.609375 24.957031 C 22.609375 25.164062 22.648438 25.367188 22.726562 25.558594 C 22.804688 25.75 22.917969 25.917969 23.066406 26.066406 C 23.214844 26.214844 23.382812 26.328125 23.574219 26.40625 C 23.769531 26.488281 23.96875 26.527344 24.175781 26.527344 C 24.382812 26.527344 24.585938 26.484375 24.777344 26.40625 C 24.96875 26.324219 25.136719 26.210938 25.285156 26.0625 L 32.730469 18.621094 C 32.878906 18.472656 32.992188 18.304688 33.070312 18.109375 C 33.148438 17.917969 33.1875 17.71875 33.1875 17.511719 C 33.1875 17.304688 33.148438 17.105469 33.070312 16.910156 C 32.992188 16.71875 32.878906 16.550781 32.730469 16.402344 Z M 32.730469 16.402344 " fill-opacity="1" fill-rule="nonzero"/></g></svg>