<svg xmlns="http://www.w3.org/2000/svg" xmlns:xlink="http://www.w3.org/1999/xlink" width="48" zoomAndPan="magnify" viewBox="0 0 36 36.000001" height="48" preserveAspectRatio="xMidYMid meet" version="1.0"><defs><clipPath id="4e41f241d7"><path d="M 3.050781 0.570312 L 34.425781 0.570312 L 34.425781 34.136719 L 3.050781 34.136719 Z M 3.050781 0.570312 " clip-rule="nonzero"/></clipPath></defs><g clip-path="url(#4e41f241d7)"><path fill="#ffffff" d="M 18.347656 34.441406 C 16.207031 34.015625 14.199219 33.238281 12.332031 32.105469 C 10.464844 30.976562 8.84375 29.5625 7.46875 27.867188 C 6.085938 26.164062 5.023438 24.28125 4.289062 22.214844 C 3.554688 20.144531 3.1875 18.015625 3.191406 15.820312 L 3.191406 3.628906 L 18.347656 0.574219 L 18.894531 0.574219 L 34.035156 3.628906 L 34.035156 15.820312 C 34.039062 18.011719 33.675781 20.144531 32.945312 22.210938 C 32.210938 24.28125 31.152344 26.164062 29.769531 27.867188 C 28.394531 29.5625 26.773438 30.972656 24.90625 32.101562 C 23.035156 33.234375 21.035156 34.011719 18.894531 34.441406 L 18.882812 34.378906 Z M 12.601562 14.933594 L 16.867188 19.234375 L 24.625 11.386719 L 26.609375 13.378906 L 16.867188 23.230469 L 10.617188 16.925781 Z M 9.621094 26.082031 C 10.765625 27.484375 12.105469 28.664062 13.648438 29.613281 C 15.191406 30.5625 16.84375 31.230469 18.613281 31.617188 C 20.382812 31.230469 22.039062 30.5625 23.578125 29.613281 C 25.121094 28.664062 26.464844 27.488281 27.605469 26.082031 C 28.78125 24.628906 29.679688 23.023438 30.304688 21.261719 C 30.925781 19.503906 31.238281 17.6875 31.234375 15.820312 L 31.234375 5.957031 L 18.613281 3.398438 L 5.992188 5.957031 L 5.992188 15.820312 C 5.988281 17.6875 6.300781 19.503906 6.921875 21.261719 C 7.546875 23.023438 8.445312 24.628906 9.621094 26.082031 Z M 9.621094 26.082031 " fill-opacity="1" fill-rule="nonzero"/></g></svg>